v -3.073851 2.3 -4.232056
v -3.073851 2.399999 -4.232055
v -2.300782 2.399999 -4.85936
v -2.300782 2.3 -4.85936
v -2.300782 2.3 -4.85936
v -2.300782 2.399999 -4.85936
v -1.497353 2.4 -3.916892
v -1.497354 2.3 -3.916892
v -2.533724 2.3 -4.417231
v -1.841592 2.3 -3.952514
v -1.841592 2.373828 -3.952514
v -2.533724 2.35465 -4.417231
v -2.533724 2.3 -4.417231
v -2.533724 2.35465 -4.417231
v -2.808689 2.380104 -4.140683
v -2.803629 2.3 -4.142365
v -1.497354 2.3 -3.916892
v -1.497353 2.4 -3.916892
v -1.841592 2.373828 -3.952514
v -1.841592 2.3 -3.952514
v -2.300782 2.399999 -4.85936
v -1.841592 2.373828 -3.952514
v -1.497353 2.4 -3.916892
v -2.533724 2.35465 -4.417231
v -3.073851 2.399999 -4.232055
v -2.808689 2.380104 -4.140683
v -2.808689 2.380104 -4.140683
v -3.073851 2.399999 -4.232055
v -3.073851 2.3 -4.232056
v -2.803629 2.3 -4.142365
v -3.073851 2.3 -4.232056
v -3.073851 2.399999 -4.232055
v -2.300782 2.399999 -4.85936
v -2.300782 2.3 -4.85936
v -2.300782 2.3 -4.85936
v -2.300782 2.399999 -4.85936
v -1.497353 2.4 -3.916892
v -1.497354 2.3 -3.916892
v -2.533724 2.3 -4.417231
v -1.841592 2.3 -3.952514
v -1.841592 2.373828 -3.952514
v -2.533724 2.35465 -4.417231
v -2.533724 2.3 -4.417231
v -2.533724 2.35465 -4.417231
v -2.808689 2.380104 -4.140683
v -2.803629 2.3 -4.142365
v -1.497354 2.3 -3.916892
v -1.497353 2.4 -3.916892
v -1.841592 2.373828 -3.952514
v -1.841592 2.3 -3.952514
v -2.300782 2.399999 -4.85936
v -1.841592 2.373828 -3.952514
v -1.497353 2.4 -3.916892
v -2.533724 2.35465 -4.417231
v -3.073851 2.399999 -4.232055
v -2.808689 2.380104 -4.140683
v -2.808689 2.380104 -4.140683
v -3.073851 2.399999 -4.232055
v -3.073851 2.3 -4.232056
v -2.803629 2.3 -4.142365
v -3.159748 2.3 -4.162355
v -2.64158 2.009995 -3.395373
v -2.64158 2.3 -3.395373
v -2.382628 2.017061 -3.314046
v -2.64158 2.3 -3.395373
v -2.64158 2.009995 -3.395373
v -2.047498 2.018515 -3.264157
v -2.047498 2.3 -3.264157
v -2.64158 2.3 -3.395373
v -2.047498 2.3 -3.264157
v -1.841592 2.3 -3.952514
v -2.533724 2.3 -4.417231
v -1.497354 -0.2 -3.916892
v -2.300782 -0.2 -4.85936
v -1.408083 2.3 -3.812173
v -1.408083 -0.2 -3.812173
v -1.497354 -0.2 -3.916892
v -1.497354 2.3 -3.916892
v -2.300782 -0.2 -4.85936
v -3.073851 -0.2000001 -4.232056
v -3.073851 2.3 -4.232056
v -3.073851 -0.2000001 -4.232056
v -3.159748 -0.2 -4.162355
v -3.159748 2.3 -4.162355
v -2.64158 -0.2 -3.395373
v -3.159748 2.3 -4.162355
v -3.159748 -0.2 -4.162355
v -2.64158 1.072378 -3.395373
v -2.64158 2.009995 -3.395373
v -2.047498 2.3 -3.264157
v -1.408083 2.3 -3.812173
v -1.497354 2.3 -3.916892
v -1.841592 2.3 -3.952514
v -2.047498 2.3 -3.264157
v -1.408083 -0.2 -3.812173
v -1.408083 2.3 -3.812173
v -2.047498 -0.2000001 -3.264157
v -2.047498 2.018515 -3.264157
v -2.047498 1.027383 -3.264157
v -2.533724 2.3 -4.417231
v -2.803629 2.3 -4.142365
v -2.64158 2.3 -3.395373
v -3.159748 2.3 -4.162355
v -3.073851 2.3 -4.232056
v -2.256369 1.026796 -2.864935
v -2.373061 1.044206 -2.831763
v -2.373061 -0.2000001 -2.831763
v -2.256369 -0.2 -2.864935
v -2.158827 1.027065 -3.045758
v -2.047498 -0.2000001 -3.264157
v -2.047498 1.027383 -3.264157
v -2.256369 -0.2 -2.864935
v -2.256369 1.026796 -2.864935
v -2.047498 1.027383 -3.264157
v -2.047498 2.018515 -3.264157
v -2.158827 1.997956 -3.045758
v -2.367322 1.046704 -3.010928
v -2.367322 1.9865 -3.010928
v -2.6022 2.012785 -3.123007
v -2.602199 1.072989 -3.123007
v -2.158827 1.027065 -3.045758
v -2.373061 1.044206 -2.831763
v -2.256369 1.026796 -2.864935
v -2.575494 1.073461 -2.916789
v -2.367322 1.046704 -3.010928
v -2.602199 1.072989 -3.123007
v -2.158827 1.027065 -3.045758
v -2.158827 1.997956 -3.045758
v -2.367322 1.9865 -3.010928
v -2.367322 1.046704 -3.010928
v -2.047498 2.018515 -3.264157
v -2.367322 1.9865 -3.010928
v -2.158827 1.997956 -3.045758
v -2.6022 2.012785 -3.123007
v -2.382628 2.017061 -3.314046
v -2.64158 2.009995 -3.395373
v -2.575494 1.073461 -2.916789
v -2.64158 -0.2 -3.395373
v -2.575494 -0.2 -2.916789
v -2.64158 1.072378 -3.395373
v -2.602199 1.072989 -3.123007
v -2.6022 2.012785 -3.123007
v -2.64158 2.009995 -3.395373
v -2.602199 1.072989 -3.123007
v -2.373061 1.044206 -2.831763
v -2.575494 1.073461 -2.916789
v -2.575494 -0.2 -2.916789
v -2.373061 -0.2000001 -2.831763
v -3.073852 2.4 -4.232056
v -4.201833 2.35465 -5.1978
v -4.264601 2.373828 -4.679913
v -3.141539 2.3 -5.809581
v -3.141539 2.399999 -5.809581
v -2.300782 2.399999 -4.85936
v -2.300782 2.3 -4.85936
v -2.300782 2.3 -4.85936
v -2.300782 2.399999 -4.85936
v -3.073852 2.4 -4.232056
v -3.073852 2.3 -4.232056
v -4.201833 2.3 -5.1978
v -4.264601 2.3 -4.679913
v -4.264601 2.373828 -4.679913
v -4.201833 2.35465 -5.1978
v -4.201833 2.3 -5.1978
v -4.201833 2.35465 -5.1978
v -3.141539 2.399999 -5.809581
v -3.141539 2.3 -5.809581
v -3.073852 2.3 -4.232056
v -3.073852 2.4 -4.232056
v -4.264601 2.373828 -4.679913
v -4.264601 2.3 -4.679913
v -4.201833 2.35465 -5.1978
v -3.073852 2.4 -4.232056
v -3.141539 2.399999 -5.809581
v -2.300782 2.399999 -4.85936
v -3.141539 2.3 -5.809581
v -3.141539 2.399999 -5.809581
v -2.300782 2.399999 -4.85936
v -2.300782 2.3 -4.85936
v -2.300782 2.3 -4.85936
v -2.300782 2.399999 -4.85936
v -3.073852 2.4 -4.232056
v -3.073852 2.3 -4.232056
v -4.201833 2.3 -5.1978
v -4.264601 2.3 -4.679913
v -4.264601 2.373828 -4.679913
v -4.201833 2.35465 -5.1978
v -4.201833 2.3 -5.1978
v -4.201833 2.35465 -5.1978
v -3.141539 2.399999 -5.809581
v -3.141539 2.3 -5.809581
v -3.073852 2.3 -4.232056
v -3.073852 2.4 -4.232056
v -4.264601 2.373828 -4.679913
v -4.264601 2.3 -4.679913
v -4.201833 2.35465 -5.1978
v -3.073852 2.4 -4.232056
v -3.141539 2.399999 -5.809581
v -2.300782 2.399999 -4.85936
v -4.60812 0.2282525 -4.938778
v -4.322113 0.3780841 -4.655458
v -4.331809 0.3199123 -5.24288
v -4.322113 2.3 -4.655458
v -4.331809 2.3 -5.24288
v -4.331809 0.3199123 -5.24288
v -4.322113 0.3780841 -4.655458
v -4.331809 2.3 -5.24288
v -4.322113 2.3 -4.655458
v -4.264601 2.3 -4.679913
v -4.201833 2.3 -5.1978
v -3.073852 -0.2 -4.232056
v -2.300782 -0.2 -4.85936
v -3.159748 2.299999 -4.162354
v -3.159748 -0.2 -4.162355
v -3.073852 -0.2 -4.232056
v -3.073852 2.3 -4.232056
v -2.300782 -0.2 -4.85936
v -3.141539 -0.2 -5.809581
v -3.141539 2.3 -5.809581
v -3.141539 -0.2 -5.809581
v -3.234957 -0.2000001 -5.915161
v -3.234957 2.3 -5.915161
v -4.331809 -0.2 -5.24288
v -3.234957 2.3 -5.915161
v -3.234957 -0.2000001 -5.915161
v -4.331809 0.3199123 -5.24288
v -4.331809 2.3 -5.24288
v -4.322113 2.3 -4.655458
v -3.159748 2.299999 -4.162354
v -3.073852 2.3 -4.232056
v -4.264601 2.3 -4.679913
v -4.322113 2.3 -4.655458
v -3.159748 -0.2 -4.162355
v -3.159748 2.299999 -4.162354
v -4.322113 -0.2 -4.655458
v -4.322113 0.3780841 -4.655458
v -4.201833 2.3 -5.1978
v -3.141539 2.3 -5.809581
v -3.234957 2.3 -5.915161
v -4.331809 2.3 -5.24288
v -4.60812 -0.2 -4.938778
v -4.60812 0.2282525 -4.938778
v -4.331809 0.3199123 -5.24288
v -4.331809 -0.2 -5.24288
v -4.60812 0.2282525 -4.938778
v -4.60812 -0.2 -4.938778
v -4.322113 -0.2 -4.655458
v -4.322113 0.3780841 -4.655458
v -1.490266 2.3 -5.477506
v -1.490266 2.399999 -5.477506
v -2.300782 2.399999 -4.85936
v -2.300782 2.3 -4.85936
v -2.300782 2.3 -4.85936
v -2.300782 2.399999 -4.85936
v -3.141539 2.4 -5.809582
v -3.141539 2.3 -5.809582
v -1.981796 2.3 -5.935374
v -2.542378 2.3 -5.736953
v -2.542378 2.369131 -5.736953
v -1.981796 2.324338 -5.935374
v -1.981796 2.3 -5.935374
v -1.981796 2.324338 -5.935374
v -1.490266 2.399999 -5.477506
v -1.490266 2.3 -5.477506
v -3.141539 2.3 -5.809582
v -3.141539 2.4 -5.809582
v -2.542378 2.369131 -5.736953
v -2.542378 2.3 -5.736953
v -2.300782 2.399999 -4.85936
v -2.542378 2.369131 -5.736953
v -3.141539 2.4 -5.809582
v -1.981796 2.324338 -5.935374
v -1.490266 2.399999 -5.477506
v -2.530454 1.842983 -6.309844
v -2.543137 1.864697 -6.325658
v -2.648344 1.892544 -6.671184
v -2.635878 1.84936 -6.655554
v -2.510255 1.817589 -7.083484
v -2.5222 1.848743 -7.098674
v -2.249984 1.846743 -6.89461
v -2.238122 1.83673 -6.87949
v -2.155881 1.906989 -6.304595
v -2.168194 1.909395 -6.320096
v -2.543137 1.864697 -6.325658
v -2.530454 1.842983 -6.309844
v -2.635878 1.84936 -6.655554
v -2.648344 1.892544 -6.671184
v -3.023167 1.873732 -6.974659
v -3.01061 1.830549 -6.958952
v -2.530228 1.907176 -6.738196
v -2.843541 1.86015 -7.105224
v -3.023167 1.873732 -6.974659
v -2.648344 1.892544 -6.671184
v -2.249984 1.846743 -6.89461
v -2.5222 1.848743 -7.098674
v -2.843541 1.86015 -7.105224
v -2.530228 1.907176 -6.738196
v -2.046243 1.855596 -6.606831
v -2.249984 1.846743 -6.89461
v -2.530228 1.907176 -6.738196
v -2.168194 1.909395 -6.320096
v -2.168194 1.909395 -6.320096
v -2.530228 1.907176 -6.738196
v -2.648344 1.892544 -6.671184
v -2.543137 1.864697 -6.325658
v -2.238122 1.83673 -6.87949
v -2.249984 1.846743 -6.89461
v -2.046243 1.855596 -6.606831
v -2.034319 1.831931 -6.591658
v -2.831283 1.816966 -7.089769
v -2.843541 1.86015 -7.105224
v -2.5222 1.848743 -7.098674
v -2.510255 1.817589 -7.083484
v -3.01061 1.830549 -6.958952
v -3.023167 1.873732 -6.974659
v -2.843541 1.86015 -7.105224
v -2.831283 1.816966 -7.089769
v -2.034319 1.831931 -6.591658
v -2.046243 1.855596 -6.606831
v -2.168194 1.909395 -6.320096
v -2.155881 1.906989 -6.304595
v -1.53625 1.446424 -6.561922
v -1.543254 1.468137 -6.570959
v -1.59694 1.495984 -6.773301
v -1.590017 1.452801 -6.764333
v -1.477857 1.42103 -6.873826
v -1.484649 1.452184 -6.882683
v -1.361905 1.450184 -6.917242
v -1.355208 1.440171 -6.908465
v -1.317675 1.51043 -6.567605
v -1.324541 1.512835 -6.576524
v -1.543254 1.468137 -6.570959
v -1.53625 1.446424 -6.561922
v -1.590017 1.452801 -6.764333
v -1.59694 1.495984 -6.773301
v -1.608406 1.477173 -6.817293
v -1.601501 1.43399 -6.80834
v -1.527238 1.510617 -6.816437
v -1.564201 1.46359 -6.862263
v -1.608406 1.477173 -6.817293
v -1.59694 1.495984 -6.773301
v -1.361905 1.450184 -6.917242
v -1.484649 1.452184 -6.882683
v -1.564201 1.46359 -6.862263
v -1.527238 1.510617 -6.816437
v -1.24742 1.459036 -6.749774
v -1.361905 1.450184 -6.917242
v -1.527238 1.510617 -6.816437
v -1.324541 1.512835 -6.576524
v -1.324541 1.512835 -6.576524
v -1.527238 1.510617 -6.816437
v -1.59694 1.495984 -6.773301
v -1.543254 1.468137 -6.570959
v -1.355208 1.440171 -6.908465
v -1.361905 1.450184 -6.917242
v -1.24742 1.459036 -6.749774
v -1.2407 1.435371 -6.740977
v -1.557348 1.420407 -6.853354
v -1.564201 1.46359 -6.862263
v -1.484649 1.452184 -6.882683
v -1.477857 1.42103 -6.873826
v -1.601501 1.43399 -6.80834
v -1.608406 1.477173 -6.817293
v -1.564201 1.46359 -6.862263
v -1.557348 1.420407 -6.853354
v -1.2407 1.435371 -6.740977
v -1.24742 1.459036 -6.749774
v -1.324541 1.512835 -6.576524
v -1.317675 1.51043 -6.567605
v -1.490266 2.3 -5.477506
v -1.490266 2.399999 -5.477506
v -2.300782 2.399999 -4.85936
v -2.300782 2.3 -4.85936
v -2.300782 2.3 -4.85936
v -2.300782 2.399999 -4.85936
v -3.141539 2.4 -5.809582
v -3.141539 2.3 -5.809582
v -1.981796 2.3 -5.935374
v -2.542378 2.3 -5.736953
v -2.542378 2.369131 -5.736953
v -1.981796 2.324338 -5.935374
v -1.981796 2.3 -5.935374
v -1.981796 2.324338 -5.935374
v -1.490266 2.399999 -5.477506
v -1.490266 2.3 -5.477506
v -3.141539 2.3 -5.809582
v -3.141539 2.4 -5.809582
v -2.542378 2.369131 -5.736953
v -2.542378 2.3 -5.736953
v -2.300782 2.399999 -4.85936
v -2.542378 2.369131 -5.736953
v -3.141539 2.4 -5.809582
v -1.981796 2.324338 -5.935374
v -1.490266 2.399999 -5.477506
v -2.530454 1.842983 -6.309844
v -2.543137 1.864697 -6.325658
v -2.648344 1.892544 -6.671184
v -2.635878 1.84936 -6.655554
v -2.510255 1.817589 -7.083484
v -2.5222 1.848743 -7.098674
v -2.249984 1.846743 -6.89461
v -2.238122 1.83673 -6.87949
v -2.155881 1.906989 -6.304595
v -2.168194 1.909395 -6.320096
v -2.543137 1.864697 -6.325658
v -2.530454 1.842983 -6.309844
v -2.635878 1.84936 -6.655554
v -2.648344 1.892544 -6.671184
v -3.023167 1.873732 -6.974659
v -3.01061 1.830549 -6.958952
v -2.530228 1.907176 -6.738196
v -2.843541 1.86015 -7.105224
v -3.023167 1.873732 -6.974659
v -2.648344 1.892544 -6.671184
v -2.249984 1.846743 -6.89461
v -2.5222 1.848743 -7.098674
v -2.843541 1.86015 -7.105224
v -2.530228 1.907176 -6.738196
v -2.046243 1.855596 -6.606831
v -2.249984 1.846743 -6.89461
v -2.530228 1.907176 -6.738196
v -2.168194 1.909395 -6.320096
v -2.168194 1.909395 -6.320096
v -2.530228 1.907176 -6.738196
v -2.648344 1.892544 -6.671184
v -2.543137 1.864697 -6.325658
v -2.238122 1.83673 -6.87949
v -2.249984 1.846743 -6.89461
v -2.046243 1.855596 -6.606831
v -2.034319 1.831931 -6.591658
v -2.831283 1.816966 -7.089769
v -2.843541 1.86015 -7.105224
v -2.5222 1.848743 -7.098674
v -2.510255 1.817589 -7.083484
v -3.01061 1.830549 -6.958952
v -3.023167 1.873732 -6.974659
v -2.843541 1.86015 -7.105224
v -2.831283 1.816966 -7.089769
v -2.034319 1.831931 -6.591658
v -2.046243 1.855596 -6.606831
v -2.168194 1.909395 -6.320096
v -2.155881 1.906989 -6.304595
v -1.53625 1.446424 -6.561922
v -1.543254 1.468137 -6.570959
v -1.59694 1.495984 -6.773301
v -1.590017 1.452801 -6.764333
v -1.477857 1.42103 -6.873826
v -1.484649 1.452184 -6.882683
v -1.361905 1.450184 -6.917242
v -1.355208 1.440171 -6.908465
v -1.317675 1.51043 -6.567605
v -1.324541 1.512835 -6.576524
v -1.543254 1.468137 -6.570959
v -1.53625 1.446424 -6.561922
v -1.590017 1.452801 -6.764333
v -1.59694 1.495984 -6.773301
v -1.608406 1.477173 -6.817293
v -1.601501 1.43399 -6.80834
v -1.527238 1.510617 -6.816437
v -1.564201 1.46359 -6.862263
v -1.608406 1.477173 -6.817293
v -1.59694 1.495984 -6.773301
v -1.361905 1.450184 -6.917242
v -1.484649 1.452184 -6.882683
v -1.564201 1.46359 -6.862263
v -1.527238 1.510617 -6.816437
v -1.24742 1.459036 -6.749774
v -1.361905 1.450184 -6.917242
v -1.527238 1.510617 -6.816437
v -1.324541 1.512835 -6.576524
v -1.324541 1.512835 -6.576524
v -1.527238 1.510617 -6.816437
v -1.59694 1.495984 -6.773301
v -1.543254 1.468137 -6.570959
v -1.355208 1.440171 -6.908465
v -1.361905 1.450184 -6.917242
v -1.24742 1.459036 -6.749774
v -1.2407 1.435371 -6.740977
v -1.557348 1.420407 -6.853354
v -1.564201 1.46359 -6.862263
v -1.484649 1.452184 -6.882683
v -1.477857 1.42103 -6.873826
v -1.601501 1.43399 -6.80834
v -1.608406 1.477173 -6.817293
v -1.564201 1.46359 -6.862263
v -1.557348 1.420407 -6.853354
v -1.2407 1.435371 -6.740977
v -1.24742 1.459036 -6.749774
v -1.324541 1.512835 -6.576524
v -1.317675 1.51043 -6.567605
v -1.400209 2.3 -5.546189
v -1.950811 2.009996 -5.992692
v -1.950811 2.3 -5.992692
v -2.278397 1.780975 -6.055382
v -2.572616 2.018515 -6.130227
v -1.950811 2.009996 -5.992692
v -2.572616 2.3 -6.130227
v -1.950811 2.3 -5.992692
v -1.950811 2.009996 -5.992692
v -2.572616 2.018515 -6.130227
v -1.950811 2.3 -5.992692
v -2.572616 2.3 -6.130227
v -2.542378 2.3 -5.736953
v -1.981796 2.3 -5.935374
v -1.400209 2.3 -5.546189
v -1.490266 2.3 -5.477506
v -3.141539 -0.2 -5.809582
v -2.300782 -0.2 -4.85936
v -3.234957 2.3 -5.915161
v -3.234957 -0.2 -5.915161
v -3.141539 -0.2 -5.809582
v -3.141539 2.3 -5.809582
v -2.300782 -0.2 -4.85936
v -1.490266 -0.2000001 -5.477506
v -1.490266 2.3 -5.477506
v -1.490266 -0.2000001 -5.477506
v -1.400209 -0.2 -5.546189
v -1.400209 2.3 -5.546189
v -1.950811 -0.2 -5.992692
v -1.400209 2.3 -5.546189
v -1.400209 -0.2 -5.546189
v -1.950811 2.009996 -5.992692
v -2.572616 2.3 -6.130227
v -3.234957 2.3 -5.915161
v -3.141539 2.3 -5.809582
v -2.542378 2.3 -5.736953
v -2.572616 2.3 -6.130227
v -3.234957 -0.2 -5.915161
v -3.234957 2.3 -5.915161
v -2.572616 -0.2 -6.130227
v -2.572616 2.018515 -6.130227
v -2.259163 -0.2000001 -6.098598
v -2.278397 1.780975 -6.055382
v -1.950811 2.009996 -5.992692
v -1.950811 -0.2 -5.992692
v -2.278397 1.780975 -6.055382
v -2.259163 -0.2000001 -6.098598
v -2.572616 -0.2 -6.130227
v -2.572616 2.018515 -6.130227
v -2.736175 -0.2 -6.599566
v -2.564997 -0.2 -6.248156
v -2.564997 1.826268 -6.248156
v -2.736175 1.839494 -6.599566
v -2.130721 -0.2000001 -6.272693
v -1.966753 -0.2000001 -6.611381
v -1.966753 1.816751 -6.611381
v -2.130721 1.90191 -6.272693
v -2.209721 -0.2 -6.89665
v -2.45269 -0.2000001 -7.18192
v -2.45269 1.804604 -7.18192
v -2.209721 1.838186 -6.89665
v -1.966753 -0.2000001 -6.611381
v -1.966753 1.816751 -6.611381
v -2.920897 -0.2 -7.191028
v -3.087328 -0.2 -6.849414
v -3.087328 1.822031 -6.849414
v -2.920897 1.801664 -7.191028
v -2.517942 -0.2 -6.722718
v -2.920897 -0.2 -7.191028
v -2.45269 -0.2000001 -7.18192
v -2.209721 -0.2 -6.89665
v -2.130721 -0.2000001 -6.272693
v -1.966753 -0.2000001 -6.611381
v -2.517942 -0.2 -6.722718
v -2.564997 -0.2 -6.248156
v -2.736175 -0.2 -6.599566
v -3.087328 -0.2 -6.849414
v -2.920897 -0.2 -7.191028
v -2.517942 -0.2 -6.722718
v -2.45269 -0.2000001 -7.18192
v -2.920897 -0.2 -7.191028
v -2.920897 1.801664 -7.191028
v -2.45269 1.804604 -7.18192
v -2.564997 -0.2 -6.248156
v -2.130721 -0.2000001 -6.272693
v -2.130721 1.90191 -6.272693
v -2.564997 1.826268 -6.248156
v -3.087328 -0.2 -6.849414
v -2.736175 -0.2 -6.599566
v -2.736175 1.839494 -6.599566
v -3.087328 1.822031 -6.849414
v -2.635878 1.84936 -6.655554
v -2.736175 1.839494 -6.599566
v -2.564997 1.826268 -6.248156
v -2.530454 1.842983 -6.309844
v -2.155881 1.906989 -6.304595
v -2.130721 1.90191 -6.272693
v -1.966753 1.816751 -6.611381
v -2.034319 1.831931 -6.591658
v -2.238122 1.83673 -6.87949
v -2.209721 1.838186 -6.89665
v -2.45269 1.804604 -7.18192
v -2.510255 1.817589 -7.083484
v -2.831283 1.816966 -7.089769
v -2.920897 1.801664 -7.191028
v -3.087328 1.822031 -6.849414
v -3.01061 1.830549 -6.958952
v -2.530454 1.842983 -6.309844
v -2.564997 1.826268 -6.248156
v -2.130721 1.90191 -6.272693
v -2.155881 1.906989 -6.304595
v -2.510255 1.817589 -7.083484
v -2.45269 1.804604 -7.18192
v -2.920897 1.801664 -7.191028
v -2.831283 1.816966 -7.089769
v -3.01061 1.830549 -6.958952
v -3.087328 1.822031 -6.849414
v -2.736175 1.839494 -6.599566
v -2.635878 1.84936 -6.655554
v -2.034319 1.831931 -6.591658
v -1.966753 1.816751 -6.611381
v -2.209721 1.838186 -6.89665
v -2.238122 1.83673 -6.87949
v -1.763207 -0.2000001 -6.65815
v -1.557852 -0.2 -6.524589
v -1.557852 1.429708 -6.524589
v -1.763207 1.442935 -6.65815
v -1.303653 -0.2000001 -6.549245
v -1.200747 -0.2000001 -6.7542
v -1.200747 1.420191 -6.754201
v -1.303653 1.505351 -6.549245
v -1.338426 -0.2 -6.919459
v -1.523391 -0.2000001 -6.978118
v -1.523391 1.408045 -6.978118
v -1.338426 1.441627 -6.919459
v -1.816644 -0.2000001 -6.991214
v -1.676203 -0.2 -6.808962
v -1.676203 1.425472 -6.808963
v -1.816644 1.405105 -6.991214
v -1.520382 -0.2 -6.807526
v -1.816644 -0.2000001 -6.991214
v -1.523391 -0.2000001 -6.978118
v -1.338426 -0.2 -6.919459
v -1.303653 -0.2000001 -6.549245
v -1.520382 -0.2 -6.807526
v -1.200747 -0.2000001 -6.7542
v -1.763207 -0.2000001 -6.65815
v -1.676203 -0.2 -6.808962
v -1.816644 -0.2000001 -6.991214
v -1.520382 -0.2 -6.807526
v -1.557852 -0.2 -6.524589
v -1.520382 -0.2 -6.807526
v -1.303653 -0.2000001 -6.549245
v -1.523391 -0.2000001 -6.978118
v -1.816644 -0.2000001 -6.991214
v -1.816644 1.405105 -6.991214
v -1.523391 1.408045 -6.978118
v -1.557852 -0.2 -6.524589
v -1.303653 -0.2000001 -6.549245
v -1.303653 1.505351 -6.549245
v -1.557852 1.429708 -6.524589
v -1.200747 -0.2000001 -6.7542
v -1.338426 -0.2 -6.919459
v -1.338426 1.441627 -6.919459
v -1.200747 1.420191 -6.754201
v -1.676203 -0.2 -6.808962
v -1.763207 -0.2000001 -6.65815
v -1.763207 1.442935 -6.65815
v -1.676203 1.425472 -6.808963
v -1.590017 1.452801 -6.764333
v -1.763207 1.442935 -6.65815
v -1.557852 1.429708 -6.524589
v -1.53625 1.446424 -6.561922
v -1.317675 1.51043 -6.567605
v -1.303653 1.505351 -6.549245
v -1.200747 1.420191 -6.754201
v -1.2407 1.435371 -6.740977
v -1.355208 1.440171 -6.908465
v -1.338426 1.441627 -6.919459
v -1.523391 1.408045 -6.978118
v -1.477857 1.42103 -6.873826
v -1.557348 1.420407 -6.853354
v -1.816644 1.405105 -6.991214
v -1.676203 1.425472 -6.808963
v -1.601501 1.43399 -6.80834
v -1.53625 1.446424 -6.561922
v -1.557852 1.429708 -6.524589
v -1.303653 1.505351 -6.549245
v -1.317675 1.51043 -6.567605
v -1.477857 1.42103 -6.873826
v -1.523391 1.408045 -6.978118
v -1.816644 1.405105 -6.991214
v -1.557348 1.420407 -6.853354
v -1.601501 1.43399 -6.80834
v -1.676203 1.425472 -6.808963
v -1.763207 1.442935 -6.65815
v -1.590017 1.452801 -6.764333
v -1.2407 1.435371 -6.740977
v -1.200747 1.420191 -6.754201
v -1.338426 1.441627 -6.919459
v -1.355208 1.440171 -6.908465
v -1.490265 2.4 -5.477505
v -0.4033045 2.35465 -4.456131
v -0.3154541 2.373828 -4.965087
v -1.497353 2.3 -3.916892
v -1.497353 2.399999 -3.916892
v -2.300782 2.399999 -4.85936
v -2.300782 2.3 -4.85936
v -2.300782 2.3 -4.85936
v -2.300782 2.399999 -4.85936
v -1.490265 2.4 -5.477505
v -1.490266 2.3 -5.477505
v -0.4033045 2.3 -4.456131
v -0.3154541 2.3 -4.965087
v -0.3154541 2.373828 -4.965087
v -0.4033045 2.35465 -4.456131
v -0.4033045 2.3 -4.456131
v -0.4033045 2.35465 -4.456131
v -1.497353 2.399999 -3.916892
v -1.497353 2.3 -3.916892
v -1.490266 2.3 -5.477505
v -1.490265 2.4 -5.477505
v -0.3154541 2.373828 -4.965087
v -0.3154541 2.3 -4.965087
v -0.4033045 2.35465 -4.456131
v -1.490265 2.4 -5.477505
v -1.497353 2.399999 -3.916892
v -2.300782 2.399999 -4.85936
v -1.497353 2.3 -3.916892
v -1.497353 2.399999 -3.916892
v -2.300782 2.399999 -4.85936
v -2.300782 2.3 -4.85936
v -2.300782 2.3 -4.85936
v -2.300782 2.399999 -4.85936
v -1.490265 2.4 -5.477505
v -1.490266 2.3 -5.477505
v -0.4033045 2.3 -4.456131
v -0.3154541 2.3 -4.965087
v -0.3154541 2.373828 -4.965087
v -0.4033045 2.35465 -4.456131
v -0.4033045 2.3 -4.456131
v -0.4033045 2.35465 -4.456131
v -1.497353 2.399999 -3.916892
v -1.497353 2.3 -3.916892
v -1.490266 2.3 -5.477505
v -1.490265 2.4 -5.477505
v -0.3154541 2.373828 -4.965087
v -0.3154541 2.3 -4.965087
v -0.4033045 2.35465 -4.456131
v -1.490265 2.4 -5.477505
v -1.497353 2.399999 -3.916892
v -2.300782 2.399999 -4.85936
v 0.01636612 0.2282525 -4.679121
v -0.2565712 0.3780841 -4.985234
v -0.2750435 0.3199123 -4.402236
v -0.2565712 2.3 -4.985234
v -0.2750435 2.3 -4.402236
v -0.2750435 0.3199123 -4.402236
v -0.2565712 0.3780841 -4.985234
v -0.2750435 2.3 -4.402236
v -0.2565712 2.3 -4.985234
v -0.3154541 2.3 -4.965087
v -0.4033045 2.3 -4.456131
v -1.490266 -0.2 -5.477505
v -2.300782 -0.2 -4.85936
v -1.400209 2.299999 -5.546189
v -1.400209 -0.2 -5.546189
v -1.490266 -0.2 -5.477505
v -1.490266 2.3 -5.477505
v -2.300782 -0.2 -4.85936
v -1.497353 -0.2 -3.916892
v -1.497353 2.3 -3.916892
v -1.497353 -0.2 -3.916892
v -1.408083 -0.2000001 -3.812173
v -1.408083 2.3 -3.812173
v -0.2750435 -0.2 -4.402236
v -1.408083 2.3 -3.812173
v -1.408083 -0.2000001 -3.812173
v -0.2750435 0.3199123 -4.402236
v -0.2750435 2.3 -4.402236
v -0.2565712 2.3 -4.985234
v -1.400209 2.299999 -5.546189
v -1.490266 2.3 -5.477505
v -0.3154541 2.3 -4.965087
v -0.2565712 2.3 -4.985234
v -1.400209 -0.2 -5.546189
v -1.400209 2.299999 -5.546189
v -0.2565712 -0.2 -4.985234
v -0.2565712 0.3780841 -4.985234
v -0.4033045 2.3 -4.456131
v -1.497353 2.3 -3.916892
v -1.408083 2.3 -3.812173
v -0.2750435 2.3 -4.402236
v 0.01636612 -0.2 -4.679121
v 0.01636612 0.2282525 -4.679121
v -0.2750435 0.3199123 -4.402236
v -0.2750435 -0.2 -4.402236
v 0.01636612 0.2282525 -4.679121
v 0.01636612 -0.2 -4.679121
v -0.2565712 -0.2 -4.985234
v -0.2565712 0.3780841 -4.985234
f 1 2 3
f 1 3 4
f 5 6 7
f 5 7 8
f 9 10 11
f 9 11 12
f 13 14 15
f 13 15 16
f 17 18 19
f 17 19 20
f 21 22 23
f 22 21 24
f 25 24 21
f 24 25 26
f 27 28 29
f 27 29 30
f 61 62 63
f 64 65 66
f 65 64 67
f 65 67 68
f 69 70 71
f 69 71 72
f 38 73 74
f 38 74 35
f 75 76 77
f 75 77 78
f 34 79 80
f 34 80 31
f 81 82 83
f 81 83 84
f 85 86 87
f 86 85 88
f 86 88 89
f 90 91 92
f 90 92 93
f 94 95 96
f 95 94 97
f 97 94 98
f 97 98 99
f 100 101 102
f 101 103 102
f 103 101 104
f 105 106 107
f 105 107 108
f 109 110 111
f 110 109 112
f 112 109 113
f 109 114 115
f 109 115 116
f 117 118 119
f 117 119 120
f 121 122 123
f 122 121 124
f 124 121 125
f 124 125 126
f 127 128 129
f 127 129 130
f 131 132 133
f 132 131 134
f 134 131 135
f 134 135 136
f 137 138 139
f 138 137 140
f 140 137 141
f 142 143 140
f 142 140 144
f 145 146 147
f 145 147 148
f 149 150 151
f 152 153 154
f 152 154 155
f 156 157 158
f 156 158 159
f 160 161 162
f 160 162 163
f 164 165 166
f 164 166 167
f 168 169 170
f 168 170 171
f 172 173 174
f 174 173 175
f 200 201 202
f 203 204 205
f 203 205 206
f 207 208 209
f 207 209 210
f 183 211 212
f 183 212 180
f 213 214 215
f 213 215 216
f 179 217 218
f 179 218 176
f 219 220 221
f 219 221 222
f 223 224 225
f 224 223 226
f 224 226 227
f 228 229 230
f 228 230 231
f 232 233 234
f 233 232 235
f 235 232 236
f 237 238 239
f 237 239 240
f 241 242 243
f 241 243 244
f 245 246 247
f 245 247 248
f 249 250 251
f 249 251 252
f 253 254 255
f 253 255 256
f 257 258 259
f 257 259 260
f 261 262 263
f 261 263 264
f 265 266 267
f 265 267 268
f 269 270 271
f 270 269 272
f 272 269 273
f 274 275 276
f 274 276 277
f 278 279 280
f 278 280 281
f 282 283 284
f 282 284 285
f 286 287 288
f 286 288 289
f 290 291 292
f 290 292 293
f 294 295 296
f 294 296 297
f 298 299 300
f 298 300 301
f 302 303 304
f 302 304 305
f 306 307 308
f 306 308 309
f 310 311 312
f 310 312 313
f 314 315 316
f 314 316 317
f 318 319 320
f 318 320 321
f 322 323 324
f 322 324 325
f 326 327 328
f 326 328 329
f 330 331 332
f 330 332 333
f 334 335 336
f 334 336 337
f 338 339 340
f 338 340 341
f 342 343 344
f 342 344 345
f 346 347 348
f 346 348 349
f 350 351 352
f 350 352 353
f 354 355 356
f 354 356 357
f 358 359 360
f 358 360 361
f 362 363 364
f 362 364 365
f 366 367 368
f 366 368 369
f 491 492 493
f 494 495 496
f 497 498 499
f 497 499 500
f 501 502 503
f 501 503 504
f 504 505 501
f 504 506 505
f 377 507 508
f 377 508 374
f 509 510 511
f 509 511 512
f 373 513 514
f 373 514 370
f 515 516 517
f 515 517 518
f 519 520 521
f 520 519 522
f 523 524 525
f 523 525 526
f 527 528 529
f 528 527 530
f 530 527 531
f 532 533 534
f 532 534 535
f 536 537 538
f 536 538 539
f 540 541 542
f 540 542 543
f 544 545 546
f 544 546 547
f 548 549 550
f 548 550 551
f 552 548 551
f 552 551 553
f 554 555 556
f 554 556 557
f 558 559 560
f 558 560 561
f 562 561 563
f 562 564 561
f 565 564 562
f 565 566 564
f 566 567 568
f 566 568 569
f 570 571 572
f 570 572 573
f 574 575 576
f 574 576 577
f 578 579 580
f 578 580 581
f 582 583 584
f 582 584 585
f 586 587 588
f 586 588 589
f 590 591 592
f 590 592 593
f 594 595 596
f 594 596 597
f 598 599 600
f 598 600 601
f 602 603 604
f 602 604 605
f 606 607 608
f 606 608 609
f 610 611 612
f 610 612 613
f 614 615 616
f 614 616 617
f 618 619 620
f 618 620 621
f 622 623 624
f 622 624 625
f 626 627 628
f 626 628 629
f 630 631 632
f 630 632 633
f 634 635 633
f 634 633 636
f 637 638 639
f 637 639 640
f 641 637 642
f 641 642 643
f 644 645 646
f 644 646 647
f 648 649 650
f 648 650 651
f 652 653 654
f 652 654 655
f 656 657 658
f 656 658 659
f 660 661 662
f 660 662 663
f 664 665 666
f 664 666 667
f 668 669 670
f 668 670 671
f 672 673 674
f 672 674 675
f 676 677 678
f 676 678 679
f 680 681 682
f 680 682 683
f 684 685 686
f 684 686 687
f 688 689 690
f 688 690 691
f 692 693 694
f 695 696 697
f 695 697 698
f 699 700 701
f 699 701 702
f 703 704 705
f 703 705 706
f 707 708 709
f 707 709 710
f 711 712 713
f 711 713 714
f 715 716 717
f 717 716 718
f 743 744 745
f 746 747 748
f 746 748 749
f 750 751 752
f 750 752 753
f 726 754 755
f 726 755 723
f 756 757 758
f 756 758 759
f 722 760 761
f 722 761 719
f 762 763 764
f 762 764 765
f 766 767 768
f 767 766 769
f 767 769 770
f 771 772 773
f 771 773 774
f 775 776 777
f 776 775 778
f 778 775 779
f 780 781 782
f 780 782 783
f 784 785 786
f 784 786 787
f 788 789 790
f 788 790 791
