v -3.815426 2.4 0.7431307
v -3.560077 2.35465 1.532104
v -3.340562 2.373828 1.319315
v -4.36053 2.3 1.455515
v -4.36053 2.4 1.455515
v -4.323214 2.399999 0.9353608
v -4.323214 2.3 0.9353608
v -4.323214 2.3 0.9353608
v -4.323214 2.399999 0.9353608
v -3.815426 2.4 0.7431307
v -3.815426 2.3 0.7431308
v -3.560078 2.3 1.532104
v -3.340562 2.3 1.319315
v -3.340562 2.373828 1.319315
v -3.560077 2.35465 1.532104
v -3.560078 2.3 1.532104
v -3.560077 2.35465 1.532104
v -4.36053 2.4 1.455515
v -4.36053 2.3 1.455515
v -3.815426 2.3 0.7431308
v -3.815426 2.4 0.7431307
v -3.340562 2.373828 1.319315
v -3.340562 2.3 1.319315
v -3.560077 2.35465 1.532104
v -3.815426 2.4 0.7431307
v -4.36053 2.4 1.455515
v -4.323214 2.399999 0.9353608
v -4.36053 2.3 1.455515
v -4.36053 2.4 1.455515
v -4.323214 2.399999 0.9353608
v -4.323214 2.3 0.9353608
v -4.323214 2.3 0.9353608
v -4.323214 2.399999 0.9353608
v -3.815426 2.4 0.7431307
v -3.815426 2.3 0.7431308
v -3.560078 2.3 1.532104
v -3.340562 2.3 1.319315
v -3.340562 2.373828 1.319315
v -3.560077 2.35465 1.532104
v -3.560078 2.3 1.532104
v -3.560077 2.35465 1.532104
v -4.36053 2.4 1.455515
v -4.36053 2.3 1.455515
v -3.815426 2.3 0.7431308
v -3.815426 2.4 0.7431307
v -3.340562 2.373828 1.319315
v -3.340562 2.3 1.319315
v -3.560077 2.35465 1.532104
v -3.815426 2.4 0.7431307
v -4.36053 2.4 1.455515
v -4.323214 2.399999 0.9353608
v -3.219839 0.2282525 1.5796
v -3.298852 0.378084 1.329078
v -3.501537 0.3199124 1.599605
v -3.298852 2.3 1.329078
v -3.501537 2.3 1.599605
v -3.501537 0.3199124 1.599605
v -3.298852 0.378084 1.329078
v -3.501537 2.3 1.599605
v -3.298852 2.3 1.329078
v -3.340562 2.3 1.319315
v -3.560078 2.3 1.532104
v -3.815426 -0.2000001 0.7431307
v -4.323214 -0.2 0.9353608
v -3.759006 2.3 0.7217714
v -3.759006 -0.2 0.7217714
v -3.815426 -0.2000001 0.7431307
v -3.815426 2.3 0.7431308
v -4.323214 -0.2 0.9353608
v -4.36053 -0.2 1.455515
v -4.36053 2.3 1.455515
v -4.36053 -0.2 1.455515
v -4.364677 -0.2000001 1.51331
v -4.364677 2.3 1.51331
v -3.501537 -0.2 1.599605
v -4.364677 2.3 1.51331
v -4.364677 -0.2000001 1.51331
v -3.501537 0.3199124 1.599605
v -3.501537 2.3 1.599605
v -3.298852 2.3 1.329078
v -3.759006 2.3 0.7217714
v -3.815426 2.3 0.7431308
v -3.340562 2.3 1.319315
v -3.298852 2.3 1.329078
v -3.759006 -0.2 0.7217714
v -3.759006 2.3 0.7217714
v -3.298852 -0.2 1.329078
v -3.298852 0.378084 1.329078
v -3.560078 2.3 1.532104
v -4.36053 2.3 1.455515
v -4.364677 2.3 1.51331
v -3.501537 2.3 1.599605
v -3.219839 -0.2000001 1.5796
v -3.219839 0.2282525 1.5796
v -3.501537 0.3199124 1.599605
v -3.501537 -0.2 1.599605
v -3.219839 0.2282525 1.5796
v -3.219839 -0.2000001 1.5796
v -3.298852 -0.2 1.329078
v -3.298852 0.378084 1.329078
v -4.793118 2.4 0.6083812
v -4.183475 2.35465 0.1378319
v -4.507024 2.373828 0.05550607
v -3.815426 2.3 0.7431304
v -3.815426 2.4 0.7431303
v -4.323214 2.399999 0.9353607
v -4.323214 2.3 0.9353607
v -4.323214 2.3 0.9353607
v -4.323214 2.399999 0.9353607
v -4.793118 2.4 0.6083812
v -4.793118 2.3 0.6083812
v -4.183475 2.3 0.137832
v -4.507024 2.3 0.05550607
v -4.507024 2.373828 0.05550607
v -4.183475 2.35465 0.1378319
v -4.183475 2.3 0.137832
v -4.183475 2.35465 0.1378319
v -3.815426 2.4 0.7431303
v -3.815426 2.3 0.7431304
v -4.793118 2.3 0.6083812
v -4.793118 2.4 0.6083812
v -4.507024 2.373828 0.05550607
v -4.507024 2.3 0.05550607
v -4.183475 2.35465 0.1378319
v -4.793118 2.4 0.6083812
v -3.815426 2.4 0.7431303
v -4.323214 2.399999 0.9353607
v -3.815426 2.3 0.7431304
v -3.815426 2.4 0.7431303
v -4.323214 2.399999 0.9353607
v -4.323214 2.3 0.9353607
v -4.323214 2.3 0.9353607
v -4.323214 2.399999 0.9353607
v -4.793118 2.4 0.6083812
v -4.793118 2.3 0.6083812
v -4.183475 2.3 0.137832
v -4.507024 2.3 0.05550607
v -4.507024 2.373828 0.05550607
v -4.183475 2.35465 0.1378319
v -4.183475 2.3 0.137832
v -4.183475 2.35465 0.1378319
v -3.815426 2.4 0.7431303
v -3.815426 2.3 0.7431304
v -4.793118 2.3 0.6083812
v -4.793118 2.4 0.6083812
v -4.507024 2.373828 0.05550607
v -4.507024 2.3 0.05550607
v -4.183475 2.35465 0.1378319
v -4.793118 2.4 0.6083812
v -3.815426 2.4 0.7431303
v -4.323214 2.399999 0.9353607
v -4.324439 0.2282525 -0.1196706
v -4.520635 0.378084 0.02219194
v -4.151284 0.3199124 0.07210173
v -4.520635 2.3 0.0221919
v -4.151284 2.3 0.07210173
v -4.151284 0.3199124 0.07210173
v -4.520635 0.378084 0.02219194
v -4.151284 2.3 0.07210173
v -4.520635 2.3 0.0221919
v -4.507024 2.3 0.05550607
v -4.183475 2.3 0.137832
v -4.793118 -0.2000001 0.6083812
v -4.323214 -0.2 0.9353608
v -4.84533 2.3 0.5720503
v -4.84533 -0.2 0.5720503
v -4.793118 -0.2000001 0.6083812
v -4.793118 2.3 0.6083812
v -4.323214 -0.2 0.9353608
v -3.815426 -0.2 0.7431304
v -3.815426 2.3 0.7431304
v -3.815426 -0.2 0.7431304
v -3.759006 -0.2000001 0.7217715
v -3.759006 2.3 0.7217715
v -4.151284 -0.2 0.0721017
v -3.759006 2.3 0.7217715
v -3.759006 -0.2000001 0.7217715
v -4.151284 0.3199124 0.07210173
v -4.151284 2.3 0.07210173
v -4.520635 2.3 0.0221919
v -4.84533 2.3 0.5720503
v -4.793118 2.3 0.6083812
v -4.507024 2.3 0.05550607
v -4.520635 2.3 0.0221919
v -4.84533 -0.2 0.5720503
v -4.84533 2.3 0.5720503
v -4.520635 -0.2 0.02219194
v -4.520635 0.378084 0.02219194
v -4.183475 2.3 0.137832
v -3.815426 2.3 0.7431304
v -3.759006 2.3 0.7217715
v -4.151284 2.3 0.07210173
v -4.324439 -0.2000001 -0.1196706
v -4.324439 0.2282525 -0.1196706
v -4.151284 0.3199124 0.07210173
v -4.151284 -0.2 0.0721017
v -4.324439 0.2282525 -0.1196706
v -4.324439 -0.2000001 -0.1196706
v -4.520635 -0.2 0.02219194
v -4.520635 0.378084 0.02219194
v -4.793118 2.3 0.6083813
v -4.793118 2.4 0.6083813
v -4.323214 2.399999 0.9353606
v -4.323214 2.3 0.9353606
v -4.323214 2.3 0.9353606
v -4.323214 2.399999 0.9353606
v -4.360531 2.4 1.455515
v -4.360531 2.3 1.455515
v -4.836954 2.3 0.9524431
v -4.734659 2.3 1.250672
v -4.734659 2.373828 1.250672
v -4.836954 2.35465 0.952443
v -4.836954 2.3 0.9524431
v -4.836954 2.35465 0.952443
v -4.793118 2.4 0.6083813
v -4.793118 2.3 0.6083813
v -4.360531 2.3 1.455515
v -4.360531 2.4 1.455515
v -4.734659 2.373828 1.250672
v -4.734659 2.3 1.250672
v -4.323214 2.399999 0.9353606
v -4.734659 2.373828 1.250672
v -4.360531 2.4 1.455515
v -4.836954 2.35465 0.952443
v -4.793118 2.4 0.6083813
v -4.793118 2.3 0.6083813
v -4.793118 2.4 0.6083813
v -4.323214 2.399999 0.9353606
v -4.323214 2.3 0.9353606
v -4.323214 2.3 0.9353606
v -4.323214 2.399999 0.9353606
v -4.360531 2.4 1.455515
v -4.360531 2.3 1.455515
v -4.836954 2.3 0.9524431
v -4.734659 2.3 1.250672
v -4.734659 2.373828 1.250672
v -4.836954 2.35465 0.952443
v -4.836954 2.3 0.9524431
v -4.836954 2.35465 0.952443
v -4.793118 2.4 0.6083813
v -4.793118 2.3 0.6083813
v -4.360531 2.3 1.455515
v -4.360531 2.4 1.455515
v -4.734659 2.373828 1.250672
v -4.734659 2.3 1.250672
v -4.323214 2.399999 0.9353606
v -4.734659 2.373828 1.250672
v -4.360531 2.4 1.455515
v -4.836954 2.35465 0.952443
v -4.793118 2.4 0.6083813
v -4.84533 2.3 0.5720503
v -4.911809 2.009996 0.9528757
v -4.911809 2.3 0.9528758
v -4.961767 1.780975 1.173262
v -4.756505 2.018515 1.275384
v -4.911809 2.009996 0.9528757
v -4.756505 2.3 1.275384
v -4.911809 2.3 0.9528758
v -4.911809 2.009996 0.9528757
v -4.756505 2.018515 1.275384
v -4.911809 2.3 0.9528758
v -4.756505 2.3 1.275384
v -4.734659 2.3 1.250672
v -4.836954 2.3 0.9524431
v -4.793118 2.3 0.6083813
v -4.84533 2.3 0.5720503
v -4.911809 2.3 0.9528758
v -4.360531 -0.2000001 1.455515
v -4.323214 -0.2 0.9353606
v -4.364676 2.3 1.51331
v -4.364676 -0.2 1.51331
v -4.360531 -0.2000001 1.455515
v -4.360531 2.3 1.455515
v -4.323214 -0.2 0.9353606
v -4.793118 -0.2 0.6083813
v -4.793118 2.3 0.6083813
v -4.793118 -0.2 0.6083813
v -4.84533 -0.2000001 0.5720503
v -4.84533 2.3 0.5720503
v -4.911809 -0.2 0.9528757
v -4.84533 2.3 0.5720503
v -4.84533 -0.2000001 0.5720503
v -4.911809 2.009996 0.9528757
v -4.756505 2.3 1.275384
v -4.364676 2.3 1.51331
v -4.360531 2.3 1.455515
v -4.734659 2.3 1.250672
v -4.756505 2.3 1.275384
v -4.364676 -0.2 1.51331
v -4.364676 2.3 1.51331
v -4.756505 -0.2000001 1.275384
v -4.756505 2.018515 1.275384
v -4.992905 -0.2 1.174588
v -4.961767 1.780975 1.173262
v -4.911809 2.009996 0.9528757
v -4.911809 -0.2 0.9528757
v -4.961767 1.780975 1.173262
v -4.992905 -0.2 1.174588
v -4.756505 -0.2000001 1.275384
v -4.756505 2.018515 1.275384
f 1 2 3
f 4 5 6
f 4 6 7
f 8 9 10
f 8 10 11
f 12 13 14
f 12 14 15
f 16 17 18
f 16 18 19
f 20 21 22
f 20 22 23
f 24 25 26
f 26 25 27
f 52 53 54
f 55 56 57
f 55 57 58
f 59 60 61
f 59 61 62
f 35 63 64
f 35 64 32
f 65 66 67
f 65 67 68
f 31 69 70
f 31 70 28
f 71 72 73
f 71 73 74
f 75 76 77
f 76 75 78
f 76 78 79
f 80 81 82
f 80 82 83
f 84 85 86
f 85 84 87
f 87 84 88
f 89 90 91
f 89 91 92
f 93 94 95
f 93 95 96
f 97 98 99
f 97 99 100
f 101 102 103
f 104 105 106
f 104 106 107
f 108 109 110
f 108 110 111
f 112 113 114
f 112 114 115
f 116 117 118
f 116 118 119
f 120 121 122
f 120 122 123
f 124 125 126
f 126 125 127
f 152 153 154
f 155 156 157
f 155 157 158
f 159 160 161
f 159 161 162
f 135 163 164
f 135 164 132
f 165 166 167
f 165 167 168
f 131 169 170
f 131 170 128
f 171 172 173
f 171 173 174
f 175 176 177
f 176 175 178
f 176 178 179
f 180 181 182
f 180 182 183
f 184 185 186
f 185 184 187
f 187 184 188
f 189 190 191
f 189 191 192
f 193 194 195
f 193 195 196
f 197 198 199
f 197 199 200
f 201 202 203
f 201 203 204
f 205 206 207
f 205 207 208
f 209 210 211
f 209 211 212
f 213 214 215
f 213 215 216
f 217 218 219
f 217 219 220
f 221 222 223
f 222 221 224
f 224 221 225
f 251 252 253
f 254 255 256
f 257 258 259
f 257 259 260
f 261 262 263
f 261 263 264
f 264 265 266
f 264 266 267
f 233 268 269
f 233 269 230
f 270 271 272
f 270 272 273
f 229 274 275
f 229 275 226
f 276 277 278
f 276 278 279
f 280 281 282
f 281 280 283
f 284 285 286
f 284 286 287
f 288 289 290
f 289 288 291
f 291 288 292
f 293 294 295
f 293 295 296
f 297 298 299
f 297 299 300
