v -9.872128 2.3 2.04214
v -9.872128 2.4 2.04214
v -9.941409 2.4 2.966799
v -9.941409 2.3 2.966799
v -9.941409 2.3 2.966799
v -9.941409 2.4 2.966799
v -10.91375 2.399999 2.346609
v -10.91375 2.3 2.346609
v -10.06483 2.3 2.441534
v -10.70853 2.3 2.258288
v -10.70853 2.373828 2.258288
v -10.06483 2.35465 2.441534
v -10.06483 2.3 2.441534
v -10.06483 2.35465 2.441534
v -10.07216 2.380104 2.065414
v -10.07399 2.3 2.069077
v -10.91375 2.3 2.346609
v -10.91375 2.399999 2.346609
v -10.70853 2.373828 2.258288
v -10.70853 2.3 2.258288
v -9.941409 2.4 2.966799
v -10.70853 2.373828 2.258288
v -10.91375 2.399999 2.346609
v -10.06483 2.35465 2.441534
v -9.872128 2.4 2.04214
v -10.07216 2.380104 2.065414
v -10.07216 2.380104 2.065414
v -9.872128 2.4 2.04214
v -9.872128 2.3 2.04214
v -10.07399 2.3 2.069077
v -9.872128 2.3 2.04214
v -9.872128 2.4 2.04214
v -9.941409 2.4 2.966799
v -9.941409 2.3 2.966799
v -9.941409 2.3 2.966799
v -9.941409 2.4 2.966799
v -10.91375 2.399999 2.346609
v -10.91375 2.3 2.346609
v -10.06483 2.3 2.441534
v -10.70853 2.3 2.258288
v -10.70853 2.373828 2.258288
v -10.06483 2.35465 2.441534
v -10.06483 2.3 2.441534
v -10.06483 2.35465 2.441534
v -10.07216 2.380104 2.065414
v -10.07399 2.3 2.069077
v -10.91375 2.3 2.346609
v -10.91375 2.399999 2.346609
v -10.70853 2.373828 2.258288
v -10.70853 2.3 2.258288
v -9.941409 2.4 2.966799
v -10.70853 2.373828 2.258288
v -10.91375 2.399999 2.346609
v -10.06483 2.35465 2.441534
v -9.872128 2.4 2.04214
v -10.07216 2.380104 2.065414
v -10.07216 2.380104 2.065414
v -9.872128 2.4 2.04214
v -9.872128 2.3 2.04214
v -10.07399 2.3 2.069077
v -9.86443 2.3 1.9394
v -10.59953 2.009995 1.439278
v -10.59953 2.3 1.439278
v -10.78875 2.01706 1.464549
v -10.59953 2.3 1.439278
v -10.59953 2.009995 1.439278
v -10.99934 2.018515 1.542496
v -10.99934 2.3 1.542496
v -10.59953 2.3 1.439278
v -10.99934 2.3 1.542496
v -10.70853 2.3 2.258288
v -10.06483 2.3 2.441534
v -10.91375 -0.2 2.346609
v -9.941409 -0.2 2.966799
v -11.02179 2.3 2.277699
v -11.02179 -0.2 2.277699
v -10.91375 -0.2 2.346609
v -10.91375 2.3 2.346609
v -9.941409 -0.2 2.966799
v -9.872128 -0.2 2.04214
v -9.872128 2.3 2.04214
v -9.872128 -0.2 2.04214
v -9.864429 -0.2 1.9394
v -9.86443 2.3 1.9394
v -10.59953 -0.2000001 1.439278
v -9.86443 2.3 1.9394
v -9.864429 -0.2 1.9394
v -10.59953 1.072378 1.439278
v -10.59953 2.009995 1.439278
v -10.99934 2.3 1.542496
v -11.02179 2.3 2.277699
v -10.91375 2.3 2.346609
v -10.70853 2.3 2.258288
v -10.99934 2.3 1.542496
v -11.02179 -0.2 2.277699
v -11.02179 2.3 2.277699
v -10.99934 -0.2 1.542496
v -10.99934 2.018515 1.542496
v -10.99934 1.027383 1.542496
v -10.06483 2.3 2.441534
v -10.07399 2.3 2.069077
v -10.59953 2.3 1.439278
v -9.86443 2.3 1.9394
v -9.872128 2.3 2.04214
v -11.12442 1.026796 1.109654
v -11.08143 1.044206 1.038094
v -11.08143 -0.2000001 1.038094
v -11.12442 -0.2000001 1.109654
v -11.06889 1.027065 1.305318
v -10.99934 -0.2 1.542496
v -10.99934 1.027383 1.542496
v -11.12442 -0.2000001 1.109654
v -11.12442 1.026796 1.109654
v -10.99934 1.027383 1.542496
v -10.99934 2.018515 1.542496
v -11.06889 1.997956 1.305318
v -10.97717 1.046704 1.198163
v -10.97717 1.9865 1.198163
v -10.78273 2.012785 1.209498
v -10.78273 1.072989 1.209498
v -11.06889 1.027065 1.305318
v -11.08143 1.044206 1.038094
v -11.12442 1.026796 1.109654
v -10.92069 1.073461 1.037356
v -10.97717 1.046704 1.198163
v -10.78273 1.072989 1.209498
v -11.06889 1.027065 1.305318
v -11.06889 1.997956 1.305318
v -10.97717 1.9865 1.198163
v -10.97717 1.046704 1.198163
v -10.99934 2.018515 1.542496
v -10.97717 1.9865 1.198163
v -11.06889 1.997956 1.305318
v -10.78273 2.012785 1.209498
v -10.78875 2.01706 1.464549
v -10.59953 2.009995 1.439278
v -10.92069 1.073461 1.037356
v -10.59953 -0.2000001 1.439278
v -10.92069 -0.2000001 1.037356
v -10.59953 1.072378 1.439278
v -10.78273 1.072989 1.209498
v -10.78273 2.012785 1.209498
v -10.59953 2.009995 1.439278
v -10.78273 1.072989 1.209498
v -11.08143 1.044206 1.038094
v -10.92069 1.073461 1.037356
v -10.92069 -0.2000001 1.037356
v -11.08143 -0.2000001 1.038094
v -10.87837 2.3 3.335667
v -10.87837 2.4 3.335667
v -9.941409 2.4 2.966798
v -9.941409 2.3 2.966798
v -9.941409 2.3 2.966798
v -9.941409 2.4 2.966798
v -9.868192 2.399999 3.934055
v -9.868192 2.3 3.934055
v -10.35902 2.3 3.290914
v -10.08801 2.3 3.827855
v -10.08801 2.373828 3.827855
v -10.35902 2.35465 3.290914
v -10.35902 2.3 3.290914
v -10.35902 2.35465 3.290914
v -10.71233 2.380104 3.465475
v -10.70754 2.3 3.465109
v -9.868192 2.3 3.934055
v -9.868192 2.399999 3.934055
v -10.08801 2.373828 3.827855
v -10.08801 2.3 3.827855
v -9.941409 2.4 2.966798
v -10.08801 2.373828 3.827855
v -9.868192 2.399999 3.934055
v -10.35902 2.35465 3.290914
v -10.87837 2.4 3.335667
v -10.71233 2.380104 3.465475
v -10.71233 2.380104 3.465475
v -10.87837 2.4 3.335667
v -10.87837 2.3 3.335667
v -10.70754 2.3 3.465109
v -10.87837 2.3 3.335667
v -10.87837 2.4 3.335667
v -9.941409 2.4 2.966798
v -9.941409 2.3 2.966798
v -9.941409 2.3 2.966798
v -9.941409 2.4 2.966798
v -9.868192 2.399999 3.934055
v -9.868192 2.3 3.934055
v -10.35902 2.3 3.290914
v -10.08801 2.3 3.827855
v -10.08801 2.373828 3.827855
v -10.35902 2.35465 3.290914
v -10.35902 2.3 3.290914
v -10.35902 2.35465 3.290914
v -10.71233 2.380104 3.465475
v -10.70754 2.3 3.465109
v -9.868192 2.3 3.934055
v -9.868192 2.399999 3.934055
v -10.08801 2.373828 3.827855
v -10.08801 2.3 3.827855
v -9.941409 2.4 2.966798
v -10.08801 2.373828 3.827855
v -9.868192 2.399999 3.934055
v -10.35902 2.35465 3.290914
v -10.87837 2.4 3.335667
v -10.71233 2.380104 3.465475
v -10.71233 2.380104 3.465475
v -10.87837 2.4 3.335667
v -10.87837 2.3 3.335667
v -10.70754 2.3 3.465109
v -10.98248 2.3 3.376653
v -10.92356 2.009995 4.116245
v -10.92356 2.3 4.116245
v -10.76627 2.01706 4.238064
v -10.92356 2.3 4.116245
v -10.92356 2.009995 4.116245
v -10.54846 2.018515 4.352012
v -10.54846 2.3 4.352012
v -10.92356 2.3 4.116245
v -10.54846 2.3 4.352012
v -10.08801 2.3 3.827855
v -10.35902 2.3 3.290914
v -9.868192 -0.2 3.934055
v -9.941409 -0.2 2.966798
v -9.860056 2.3 4.041528
v -9.860056 -0.2 4.041528
v -9.868192 -0.2 3.934055
v -9.868192 2.3 3.934055
v -9.941409 -0.2 2.966798
v -10.87837 -0.2 3.335667
v -10.87837 2.3 3.335667
v -10.87837 -0.2 3.335667
v -10.98248 -0.2 3.376653
v -10.98248 2.3 3.376653
v -10.92356 -0.2000001 4.116245
v -10.98248 2.3 3.376653
v -10.98248 -0.2 3.376653
v -10.92356 1.072378 4.116245
v -10.92356 2.009995 4.116245
v -10.54846 2.3 4.352012
v -9.860056 2.3 4.041528
v -9.868192 2.3 3.934055
v -10.08801 2.3 3.827855
v -10.54846 2.3 4.352012
v -9.860056 -0.2 4.041528
v -9.860056 2.3 4.041528
v -10.54846 -0.2 4.352012
v -10.54846 2.018515 4.352012
v -10.54846 1.027383 4.352012
v -10.35902 2.3 3.290914
v -10.70754 2.3 3.465109
v -10.92356 2.3 4.116245
v -10.98248 2.3 3.376653
v -10.87837 2.3 3.335667
v -10.85245 1.026796 4.631487
v -10.9468 1.044206 4.632742
v -10.9468 -0.2000001 4.632742
v -10.85245 -0.2000001 4.631487
v -10.71525 1.027065 4.506027
v -10.54846 -0.2 4.352012
v -10.54846 1.027383 4.352012
v -10.85245 -0.2000001 4.631487
v -10.85245 1.026796 4.631487
v -10.54846 1.027383 4.352012
v -10.54846 2.018515 4.352012
v -10.71525 1.997956 4.506027
v -10.87624 1.046704 4.488734
v -10.87624 1.9865 4.488734
v -11.00385 2.012785 4.347019
v -11.00385 1.072989 4.347019
v -10.71525 1.027065 4.506027
v -10.9468 1.044206 4.632742
v -10.85245 1.026796 4.631487
v -11.06161 1.073461 4.520086
v -10.87624 1.046704 4.488734
v -11.00385 1.072989 4.347019
v -10.71525 1.027065 4.506027
v -10.71525 1.997956 4.506027
v -10.87624 1.9865 4.488734
v -10.87624 1.046704 4.488734
v -10.54846 2.018515 4.352012
v -10.87624 1.9865 4.488734
v -10.71525 1.997956 4.506027
v -11.00385 2.012785 4.347019
v -10.76627 2.01706 4.238064
v -10.92356 2.009995 4.116245
v -11.06161 1.073461 4.520086
v -10.92356 -0.2000001 4.116245
v -11.06161 -0.2000001 4.520086
v -10.92356 1.072378 4.116245
v -11.00385 1.072989 4.347019
v -11.00385 2.012785 4.347019
v -10.92356 2.009995 4.116245
v -11.00385 1.072989 4.347019
v -10.9468 1.044206 4.632742
v -11.06161 1.073461 4.520086
v -11.06161 -0.2000001 4.520086
v -10.9468 -0.2000001 4.632742
v -9.035687 2.399999 3.49968
v -8.923489 2.35465 4.633958
v -8.597031 2.373828 4.56184
v -9.868192 2.3 3.934055
v -9.868192 2.4 3.934055
v -9.941409 2.4 2.966798
v -9.941409 2.3 2.966798
v -9.941409 2.3 2.966798
v -9.941409 2.4 2.966798
v -9.035687 2.399999 3.49968
v -9.035687 2.3 3.49968
v -8.923489 2.3 4.633958
v -8.597031 2.3 4.56184
v -8.597031 2.373828 4.56184
v -8.923489 2.35465 4.633958
v -8.923489 2.3 4.633958
v -8.923489 2.35465 4.633958
v -9.868192 2.4 3.934055
v -9.868192 2.3 3.934055
v -9.035687 2.3 3.49968
v -9.035687 2.399999 3.49968
v -8.597031 2.373828 4.56184
v -8.597031 2.3 4.56184
v -8.923489 2.35465 4.633958
v -9.035687 2.399999 3.49968
v -9.868192 2.4 3.934055
v -9.941409 2.4 2.966798
v -9.868192 2.3 3.934055
v -9.868192 2.4 3.934055
v -9.941409 2.4 2.966798
v -9.941409 2.3 2.966798
v -9.941409 2.3 2.966798
v -9.941409 2.4 2.966798
v -9.035687 2.399999 3.49968
v -9.035687 2.3 3.49968
v -8.923489 2.3 4.633958
v -8.597031 2.3 4.56184
v -8.597031 2.373828 4.56184
v -8.923489 2.35465 4.633958
v -8.923489 2.3 4.633958
v -8.923489 2.35465 4.633958
v -9.868192 2.4 3.934055
v -9.868192 2.3 3.934055
v -9.035687 2.3 3.49968
v -9.035687 2.399999 3.49968
v -8.597031 2.373828 4.56184
v -8.597031 2.3 4.56184
v -8.923489 2.35465 4.633958
v -9.035687 2.399999 3.49968
v -9.868192 2.4 3.934055
v -9.941409 2.4 2.966798
v -8.567927 0.2282526 4.884865
v -8.551848 0.3780841 4.601206
v -8.877849 0.3199124 4.746517
v -8.551848 2.3 4.601206
v -8.877849 2.3 4.746517
v -8.877849 0.3199124 4.746517
v -8.551848 0.3780841 4.601206
v -8.877849 2.3 4.746517
v -8.551848 2.3 4.601206
v -8.597031 2.3 4.56184
v -8.923489 2.3 4.633958
v -9.035687 -0.2 3.49968
v -9.941409 -0.2 2.966799
v -8.935052 2.3 3.558888
v -8.935052 -0.2 3.558888
v -9.035687 -0.2 3.49968
v -9.035687 2.3 3.49968
v -9.941409 -0.2 2.966799
v -9.868192 -0.2 3.934055
v -9.868192 2.3 3.934055
v -9.868192 -0.2 3.934055
v -9.860056 -0.2 4.041528
v -9.860056 2.3 4.041528
v -8.877849 -0.2 4.746517
v -9.860056 2.3 4.041528
v -9.860056 -0.2 4.041528
v -8.877849 0.3199124 4.746517
v -8.877849 2.3 4.746517
v -8.551848 2.3 4.601206
v -8.935052 2.3 3.558888
v -9.035687 2.3 3.49968
v -8.597031 2.3 4.56184
v -8.551848 2.3 4.601206
v -8.935052 -0.2 3.558888
v -8.935052 2.3 3.558888
v -8.551847 -0.2 4.601206
v -8.551848 0.3780841 4.601206
v -8.923489 2.3 4.633958
v -9.868192 2.3 3.934055
v -9.860056 2.3 4.041528
v -8.877849 2.3 4.746517
v -8.567927 -0.2000001 4.884865
v -8.567927 0.2282526 4.884865
v -8.877849 0.3199124 4.746517
v -8.877849 -0.2 4.746517
v -8.567927 0.2282526 4.884865
v -8.567927 -0.2000001 4.884865
v -8.551847 -0.2 4.601206
v -8.551848 0.3780841 4.601206
v -10.87837 2.399999 3.335667
v -12.03906 2.35465 2.621548
v -12.12088 2.373828 2.939896
v -10.91375 2.3 2.346609
v -10.91375 2.4 2.346609
v -9.941409 2.4 2.966799
v -9.941409 2.3 2.966799
v -9.941409 2.3 2.966799
v -9.941409 2.4 2.966799
v -10.87837 2.399999 3.335667
v -10.87837 2.3 3.335667
v -12.03906 2.3 2.621548
v -12.12088 2.3 2.939896
v -12.12088 2.373828 2.939896
v -12.03906 2.35465 2.621548
v -12.03906 2.3 2.621548
v -12.03906 2.35465 2.621548
v -10.91375 2.4 2.346609
v -10.91375 2.3 2.346609
v -10.87837 2.3 3.335667
v -10.87837 2.399999 3.335667
v -12.12088 2.373828 2.939896
v -12.12088 2.3 2.939896
v -12.03906 2.35465 2.621548
v -10.87837 2.399999 3.335667
v -10.91375 2.4 2.346609
v -9.941409 2.4 2.966799
v -10.91375 2.3 2.346609
v -10.91375 2.4 2.346609
v -9.941409 2.4 2.966799
v -9.941409 2.3 2.966799
v -9.941409 2.3 2.966799
v -9.941409 2.4 2.966799
v -10.87837 2.399999 3.335667
v -10.87837 2.3 3.335667
v -12.03906 2.3 2.621548
v -12.12088 2.3 2.939896
v -12.12088 2.373828 2.939896
v -12.03906 2.35465 2.621548
v -12.03906 2.3 2.621548
v -12.03906 2.35465 2.621548
v -10.91375 2.4 2.346609
v -10.91375 2.3 2.346609
v -10.87837 2.3 3.335667
v -10.87837 2.399999 3.335667
v -12.12088 2.373828 2.939896
v -12.12088 2.3 2.939896
v -12.03906 2.35465 2.621548
v -10.87837 2.399999 3.335667
v -10.91375 2.4 2.346609
v -9.941409 2.4 2.966799
v -12.45155 0.2282526 2.732699
v -12.18053 0.3780841 2.948785
v -12.17059 0.3199124 2.578653
v -12.18053 2.3 2.948785
v -12.17059 2.3 2.578653
v -12.17059 0.3199124 2.578653
v -12.18053 0.3780841 2.948785
v -12.17059 2.3 2.578653
v -12.18053 2.3 2.948785
v -12.12088 2.3 2.939896
v -12.03906 2.3 2.621548
v -10.87837 -0.2 3.335667
v -9.941409 -0.2 2.966799
v -10.98248 2.3 3.376653
v -10.98248 -0.2 3.376653
v -10.87837 -0.2 3.335667
v -10.87837 2.3 3.335667
v -9.941409 -0.2 2.966799
v -10.91375 -0.2 2.346609
v -10.91375 2.3 2.346609
v -10.91375 -0.2 2.346609
v -11.02179 -0.2 2.277699
v -11.02179 2.3 2.277699
v -12.17059 -0.2 2.578653
v -11.02179 2.3 2.277699
v -11.02179 -0.2 2.277699
v -12.17059 0.3199124 2.578653
v -12.17059 2.3 2.578653
v -12.18053 2.3 2.948785
v -10.98248 2.3 3.376653
v -10.87837 2.3 3.335667
v -12.12088 2.3 2.939896
v -12.18053 2.3 2.948785
v -10.98248 -0.2 3.376653
v -10.98248 2.3 3.376653
v -12.18053 -0.2 2.948785
v -12.18053 0.3780841 2.948785
v -12.03906 2.3 2.621548
v -10.91375 2.3 2.346609
v -11.02179 2.3 2.277699
v -12.17059 2.3 2.578653
v -12.45155 -0.2000001 2.732699
v -12.45155 0.2282526 2.732699
v -12.17059 0.3199124 2.578653
v -12.17059 -0.2 2.578653
v -12.45155 0.2282526 2.732699
v -12.45155 -0.2000001 2.732699
v -12.18053 -0.2 2.948785
v -12.18053 0.3780841 2.948785
v -9.079388 2.3 2.643784
v -9.079388 2.4 2.643784
v -9.941409 2.4 2.966799
v -9.941409 2.3 2.966799
v -9.941409 2.3 2.966799
v -9.941409 2.4 2.966799
v -9.872128 2.399999 2.04214
v -9.872128 2.3 2.04214
v -9.167824 2.3 2.245851
v -9.591182 2.3 2.255948
v -9.591182 2.369131 2.255948
v -9.167824 2.324338 2.245851
v -9.167824 2.3 2.245851
v -9.167824 2.324338 2.245851
v -9.079388 2.4 2.643784
v -9.079388 2.3 2.643784
v -9.872128 2.3 2.04214
v -9.872128 2.399999 2.04214
v -9.591182 2.369131 2.255948
v -9.591182 2.3 2.255948
v -9.941409 2.4 2.966799
v -9.591182 2.369131 2.255948
v -9.872128 2.399999 2.04214
v -9.167824 2.324338 2.245851
v -9.079388 2.4 2.643784
v -9.311969 1.842983 1.874918
v -9.311878 1.864697 1.86153
v -9.223175 1.892544 1.619941
v -9.222934 1.84936 1.63281
v -9.001331 1.817589 1.425678
v -9.00237 1.848744 1.414054
v -8.928555 1.846743 1.600051
v -8.927388 1.83673 1.611477
v -9.105119 1.906989 1.970336
v -9.105594 1.909395 1.957832
v -9.311878 1.864697 1.86153
v -9.311969 1.842983 1.874918
v -9.222934 1.84936 1.63281
v -9.223175 1.892544 1.619941
v -9.292122 1.873733 1.328177
v -9.292019 1.830549 1.341264
v -9.135531 1.907176 1.613602
v -9.159457 1.860149 1.312674
v -9.292122 1.873733 1.328177
v -9.223175 1.892544 1.619941
v -8.928555 1.846743 1.600051
v -9.00237 1.848744 1.414054
v -9.159457 1.860149 1.312674
v -9.135531 1.907176 1.613602
v -8.919714 1.855596 1.813073
v -8.928555 1.846743 1.600051
v -9.135531 1.907176 1.613602
v -9.105594 1.909395 1.957832
v -9.105594 1.909395 1.957832
v -9.135531 1.907176 1.613602
v -9.223175 1.892544 1.619941
v -9.311878 1.864697 1.86153
v -8.927388 1.83673 1.611477
v -8.928555 1.846743 1.600051
v -8.919714 1.855596 1.813073
v -8.918644 1.831931 1.824648
v -9.158897 1.816966 1.325047
v -9.159457 1.860149 1.312674
v -9.00237 1.848744 1.414054
v -9.001331 1.817589 1.425678
v -9.292019 1.830549 1.341264
v -9.292122 1.873733 1.328177
v -9.159457 1.860149 1.312674
v -9.158897 1.816966 1.325047
v -8.918644 1.831931 1.824648
v -8.919714 1.855596 1.813073
v -9.105594 1.909395 1.957832
v -9.105119 1.906989 1.970336
v -8.6292 1.446423 1.94317
v -8.630297 1.468137 1.936783
v -8.592355 1.495985 1.814501
v -8.591133 1.452801 1.820695
v -8.485529 1.42103 1.783415
v -8.486951 1.452184 1.777534
v -8.398953 1.450183 1.781721
v -8.397386 1.44017 1.787374
v -8.486561 1.51043 1.976352
v -8.48787 1.512835 1.970295
v -8.630297 1.468137 1.936783
v -8.6292 1.446423 1.94317
v -8.591133 1.452801 1.820695
v -8.592355 1.495985 1.814501
v -8.584625 1.477173 1.78856
v -8.583377 1.43399 1.794712
v -8.534854 1.510617 1.804543
v -8.542739 1.46359 1.773211
v -8.584625 1.477173 1.78856
v -8.592355 1.495985 1.814501
v -8.398953 1.450183 1.781721
v -8.486951 1.452184 1.777534
v -8.542739 1.46359 1.773211
v -8.534854 1.510617 1.804543
v -8.378042 1.459036 1.887795
v -8.398953 1.450183 1.781721
v -8.534854 1.510617 1.804543
v -8.48787 1.512835 1.970295
v -8.48787 1.512835 1.970295
v -8.534854 1.510617 1.804543
v -8.592355 1.495985 1.814501
v -8.630297 1.468137 1.936783
v -8.397386 1.44017 1.787374
v -8.398953 1.450183 1.781721
v -8.378042 1.459036 1.887795
v -8.376511 1.435371 1.893504
v -8.541409 1.420407 1.779237
v -8.542739 1.46359 1.773211
v -8.486951 1.452184 1.777534
v -8.485529 1.42103 1.783415
v -8.583377 1.43399 1.794712
v -8.584625 1.477173 1.78856
v -8.542739 1.46359 1.773211
v -8.541409 1.420407 1.779237
v -8.376511 1.435371 1.893504
v -8.378042 1.459036 1.887795
v -8.48787 1.512835 1.970295
v -8.486561 1.51043 1.976352
v -9.079388 2.3 2.643784
v -9.079388 2.4 2.643784
v -9.941409 2.4 2.966799
v -9.941409 2.3 2.966799
v -9.941409 2.3 2.966799
v -9.941409 2.4 2.966799
v -9.872128 2.399999 2.04214
v -9.872128 2.3 2.04214
v -9.167824 2.3 2.245851
v -9.591182 2.3 2.255948
v -9.591182 2.369131 2.255948
v -9.167824 2.324338 2.245851
v -9.167824 2.3 2.245851
v -9.167824 2.324338 2.245851
v -9.079388 2.4 2.643784
v -9.079388 2.3 2.643784
v -9.872128 2.3 2.04214
v -9.872128 2.399999 2.04214
v -9.591182 2.369131 2.255948
v -9.591182 2.3 2.255948
v -9.941409 2.4 2.966799
v -9.591182 2.369131 2.255948
v -9.872128 2.399999 2.04214
v -9.167824 2.324338 2.245851
v -9.079388 2.4 2.643784
v -9.311969 1.842983 1.874918
v -9.311878 1.864697 1.86153
v -9.223175 1.892544 1.619941
v -9.222934 1.84936 1.63281
v -9.001331 1.817589 1.425678
v -9.00237 1.848744 1.414054
v -8.928555 1.846743 1.600051
v -8.927388 1.83673 1.611477
v -9.105119 1.906989 1.970336
v -9.105594 1.909395 1.957832
v -9.311878 1.864697 1.86153
v -9.311969 1.842983 1.874918
v -9.222934 1.84936 1.63281
v -9.223175 1.892544 1.619941
v -9.292122 1.873733 1.328177
v -9.292019 1.830549 1.341264
v -9.135531 1.907176 1.613602
v -9.159457 1.860149 1.312674
v -9.292122 1.873733 1.328177
v -9.223175 1.892544 1.619941
v -8.928555 1.846743 1.600051
v -9.00237 1.848744 1.414054
v -9.159457 1.860149 1.312674
v -9.135531 1.907176 1.613602
v -8.919714 1.855596 1.813073
v -8.928555 1.846743 1.600051
v -9.135531 1.907176 1.613602
v -9.105594 1.909395 1.957832
v -9.105594 1.909395 1.957832
v -9.135531 1.907176 1.613602
v -9.223175 1.892544 1.619941
v -9.311878 1.864697 1.86153
v -8.927388 1.83673 1.611477
v -8.928555 1.846743 1.600051
v -8.919714 1.855596 1.813073
v -8.918644 1.831931 1.824648
v -9.158897 1.816966 1.325047
v -9.159457 1.860149 1.312674
v -9.00237 1.848744 1.414054
v -9.001331 1.817589 1.425678
v -9.292019 1.830549 1.341264
v -9.292122 1.873733 1.328177
v -9.159457 1.860149 1.312674
v -9.158897 1.816966 1.325047
v -8.918644 1.831931 1.824648
v -8.919714 1.855596 1.813073
v -9.105594 1.909395 1.957832
v -9.105119 1.906989 1.970336
v -8.6292 1.446423 1.94317
v -8.630297 1.468137 1.936783
v -8.592355 1.495985 1.814501
v -8.591133 1.452801 1.820695
v -8.485529 1.42103 1.783415
v -8.486951 1.452184 1.777534
v -8.398953 1.450183 1.781721
v -8.397386 1.44017 1.787374
v -8.486561 1.51043 1.976352
v -8.48787 1.512835 1.970295
v -8.630297 1.468137 1.936783
v -8.6292 1.446423 1.94317
v -8.591133 1.452801 1.820695
v -8.592355 1.495985 1.814501
v -8.584625 1.477173 1.78856
v -8.583377 1.43399 1.794712
v -8.534854 1.510617 1.804543
v -8.542739 1.46359 1.773211
v -8.584625 1.477173 1.78856
v -8.592355 1.495985 1.814501
v -8.398953 1.450183 1.781721
v -8.486951 1.452184 1.777534
v -8.542739 1.46359 1.773211
v -8.534854 1.510617 1.804543
v -8.378042 1.459036 1.887795
v -8.398953 1.450183 1.781721
v -8.534854 1.510617 1.804543
v -8.48787 1.512835 1.970295
v -8.48787 1.512835 1.970295
v -8.534854 1.510617 1.804543
v -8.592355 1.495985 1.814501
v -8.630297 1.468137 1.936783
v -8.397386 1.44017 1.787374
v -8.398953 1.450183 1.781721
v -8.378042 1.459036 1.887795
v -8.376511 1.435371 1.893504
v -8.541409 1.420407 1.779237
v -8.542739 1.46359 1.773211
v -8.486951 1.452184 1.777534
v -8.485529 1.42103 1.783415
v -8.583377 1.43399 1.794712
v -8.584625 1.477173 1.78856
v -8.542739 1.46359 1.773211
v -8.541409 1.420407 1.779237
v -8.376511 1.435371 1.893504
v -8.378042 1.459036 1.887795
v -8.48787 1.512835 1.970295
v -8.486561 1.51043 1.976352
v -8.983607 2.3 2.607893
v -9.122351 2.009995 2.214208
v -9.122352 2.3 2.214208
v -9.286555 1.780975 2.102062
v -9.416004 2.018515 1.980293
v -9.122351 2.009995 2.214208
v -9.416004 2.3 1.980293
v -9.122352 2.3 2.214208
v -9.122351 2.009995 2.214208
v -9.416004 2.018515 1.980293
v -9.122352 2.3 2.214208
v -9.416004 2.3 1.980293
v -9.591182 2.3 2.255948
v -9.167824 2.3 2.245851
v -8.983607 2.3 2.607893
v -9.079388 2.3 2.643784
v -9.872128 -0.2 2.04214
v -9.941409 -0.2 2.966799
v -9.864429 2.3 1.9394
v -9.864429 -0.2 1.9394
v -9.872128 -0.2 2.04214
v -9.872128 2.3 2.04214
v -9.941409 -0.2 2.966799
v -9.079388 -0.2 2.643784
v -9.079388 2.3 2.643784
v -9.079388 -0.2 2.643784
v -8.983608 -0.2 2.607893
v -8.983607 2.3 2.607893
v -9.122351 -0.2 2.214208
v -8.983607 2.3 2.607893
v -8.983608 -0.2 2.607893
v -9.122351 2.009995 2.214208
v -9.416004 2.3 1.980293
v -9.864429 2.3 1.9394
v -9.872128 2.3 2.04214
v -9.591182 2.3 2.255948
v -9.416004 2.3 1.980293
v -9.864429 -0.2 1.9394
v -9.864429 2.3 1.9394
v -9.416004 -0.2000001 1.980293
v -9.416004 2.018515 1.980293
v -9.255624 -0.2 2.07817
v -9.286555 1.780975 2.102062
v -9.122351 2.009995 2.214208
v -9.122351 -0.2 2.214208
v -9.286555 1.780975 2.102062
v -9.255624 -0.2 2.07817
v -9.416004 -0.2000001 1.980293
v -9.416004 2.018515 1.980293
v -9.297254 -0.2 1.63789
v -9.358048 -0.2000001 1.905377
v -9.358048 1.826268 1.905377
v -9.297254 1.839494 1.63789
v -9.104258 -0.2000001 1.99604
v -8.871937 -0.2 1.828417
v -8.871937 1.81675 1.828417
v -9.104258 1.90191 1.99604
v -8.905877 -0.2 1.609307
v -8.939816 -0.2000001 1.390198
v -8.939816 1.804604 1.390198
v -8.905877 1.838186 1.609307
v -8.871937 -0.2 1.828417
v -8.871937 1.81675 1.828417
v -9.167021 -0.2 1.241009
v -9.370255 -0.2000001 1.380175
v -9.370255 1.822031 1.380175
v -9.167021 1.801664 1.241009
v -9.135015 -0.2000001 1.626042
v -9.167021 -0.2 1.241009
v -8.939816 -0.2000001 1.390198
v -8.905877 -0.2 1.609307
v -9.104258 -0.2000001 1.99604
v -8.871937 -0.2 1.828417
v -9.135015 -0.2000001 1.626042
v -9.358048 -0.2000001 1.905377
v -9.297254 -0.2 1.63789
v -9.370255 -0.2000001 1.380175
v -9.167021 -0.2 1.241009
v -9.135015 -0.2000001 1.626042
v -8.939816 -0.2000001 1.390198
v -9.167021 -0.2 1.241009
v -9.167021 1.801664 1.241009
v -8.939816 1.804604 1.390198
v -9.358048 -0.2000001 1.905377
v -9.104258 -0.2000001 1.99604
v -9.104258 1.90191 1.99604
v -9.358048 1.826268 1.905377
v -9.370255 -0.2000001 1.380175
v -9.297254 -0.2 1.63789
v -9.297254 1.839494 1.63789
v -9.370255 1.822031 1.380175
v -9.222934 1.84936 1.63281
v -9.297254 1.839494 1.63789
v -9.358048 1.826268 1.905377
v -9.311969 1.842983 1.874918
v -9.105119 1.906989 1.970336
v -9.104258 1.90191 1.99604
v -8.871937 1.81675 1.828417
v -8.918644 1.831931 1.824648
v -8.927388 1.83673 1.611477
v -8.905877 1.838186 1.609307
v -8.939816 1.804604 1.390198
v -9.001331 1.817589 1.425678
v -9.158897 1.816966 1.325047
v -9.167021 1.801664 1.241009
v -9.370255 1.822031 1.380175
v -9.292019 1.830549 1.341264
v -9.311969 1.842983 1.874918
v -9.358048 1.826268 1.905377
v -9.104258 1.90191 1.99604
v -9.105119 1.906989 1.970336
v -9.001331 1.817589 1.425678
v -8.939816 1.804604 1.390198
v -9.167021 1.801664 1.241009
v -9.158897 1.816966 1.325047
v -9.292019 1.830549 1.341264
v -9.370255 1.822031 1.380175
v -9.297254 1.839494 1.63789
v -9.222934 1.84936 1.63281
v -8.918644 1.831931 1.824648
v -8.871937 1.81675 1.828417
v -8.905877 1.838186 1.609307
v -8.927388 1.83673 1.611477
v -8.733978 -0.2 1.845189
v -8.656661 -0.2 1.96067
v -8.656661 1.429709 1.96067
v -8.733978 1.442935 1.845188
v -8.483943 -0.2 1.988807
v -8.34584 -0.2000001 1.892525
v -8.34584 1.420191 1.892525
v -8.483943 1.505351 1.988807
v -8.383327 -0.2 1.784639
v -8.481274 -0.2 1.720982
v -8.481274 1.408045 1.720982
v -8.383327 1.441627 1.784639
v -8.6526 -0.2 1.65304
v -8.628681 -0.2 1.77957
v -8.628681 1.425472 1.77957
v -8.6526 1.405105 1.65304
v -8.533529 -0.2 1.810575
v -8.6526 -0.2 1.65304
v -8.481274 -0.2 1.720982
v -8.383327 -0.2 1.784639
v -8.483943 -0.2 1.988807
v -8.533529 -0.2 1.810575
v -8.34584 -0.2000001 1.892525
v -8.733978 -0.2 1.845189
v -8.628681 -0.2 1.77957
v -8.6526 -0.2 1.65304
v -8.533529 -0.2 1.810575
v -8.656661 -0.2 1.96067
v -8.533529 -0.2 1.810575
v -8.483943 -0.2 1.988807
v -8.481274 -0.2 1.720982
v -8.6526 -0.2 1.65304
v -8.6526 1.405105 1.65304
v -8.481274 1.408045 1.720982
v -8.656661 -0.2 1.96067
v -8.483943 -0.2 1.988807
v -8.483943 1.505351 1.988807
v -8.656661 1.429709 1.96067
v -8.34584 -0.2000001 1.892525
v -8.383327 -0.2 1.784639
v -8.383327 1.441627 1.784639
v -8.34584 1.420191 1.892525
v -8.628681 -0.2 1.77957
v -8.733978 -0.2 1.845189
v -8.733978 1.442935 1.845188
v -8.628681 1.425472 1.77957
v -8.591133 1.452801 1.820695
v -8.733978 1.442935 1.845188
v -8.656661 1.429709 1.96067
v -8.6292 1.446423 1.94317
v -8.486561 1.51043 1.976352
v -8.483943 1.505351 1.988807
v -8.34584 1.420191 1.892525
v -8.376511 1.435371 1.893504
v -8.397386 1.44017 1.787374
v -8.383327 1.441627 1.784639
v -8.481274 1.408045 1.720982
v -8.485529 1.42103 1.783415
v -8.541409 1.420407 1.779237
v -8.6526 1.405105 1.65304
v -8.628681 1.425472 1.77957
v -8.583377 1.43399 1.794712
v -8.6292 1.446423 1.94317
v -8.656661 1.429709 1.96067
v -8.483943 1.505351 1.988807
v -8.486561 1.51043 1.976352
v -8.485529 1.42103 1.783415
v -8.481274 1.408045 1.720982
v -8.6526 1.405105 1.65304
v -8.541409 1.420407 1.779237
v -8.583377 1.43399 1.794712
v -8.628681 1.425472 1.77957
v -8.733978 1.442935 1.845188
v -8.591133 1.452801 1.820695
v -8.376511 1.435371 1.893504
v -8.34584 1.420191 1.892525
v -8.383327 1.441627 1.784639
v -8.397386 1.44017 1.787374
v -9.035687 2.3 3.499679
v -9.035687 2.4 3.499679
v -9.941409 2.4 2.966799
v -9.941409 2.3 2.966799
v -9.941409 2.3 2.966799
v -9.941409 2.4 2.966799
v -9.079388 2.399999 2.643785
v -9.079388 2.3 2.643784
v -8.81423 2.3 3.242404
v -8.75456 2.3 2.964533
v -8.75456 2.373828 2.964533
v -8.81423 2.35465 3.242404
v -8.81423 2.3 3.242404
v -8.81423 2.35465 3.242404
v -9.035687 2.4 3.499679
v -9.035687 2.3 3.499679
v -9.079388 2.3 2.643784
v -9.079388 2.399999 2.643785
v -8.75456 2.373828 2.964533
v -8.75456 2.3 2.964533
v -9.941409 2.4 2.966799
v -8.75456 2.373828 2.964533
v -9.079388 2.399999 2.643785
v -8.81423 2.35465 3.242404
v -9.035687 2.4 3.499679
v -9.035687 2.3 3.499679
v -9.035687 2.4 3.499679
v -9.941409 2.4 2.966799
v -9.941409 2.3 2.966799
v -9.941409 2.3 2.966799
v -9.941409 2.4 2.966799
v -9.079388 2.399999 2.643785
v -9.079388 2.3 2.643784
v -8.81423 2.3 3.242404
v -8.75456 2.3 2.964533
v -8.75456 2.373828 2.964533
v -8.81423 2.35465 3.242404
v -8.81423 2.3 3.242404
v -8.81423 2.35465 3.242404
v -9.035687 2.4 3.499679
v -9.035687 2.3 3.499679
v -9.079388 2.3 2.643784
v -9.079388 2.399999 2.643785
v -8.75456 2.373828 2.964533
v -8.75456 2.3 2.964533
v -9.941409 2.4 2.966799
v -8.75456 2.373828 2.964533
v -9.079388 2.399999 2.643785
v -8.81423 2.35465 3.242404
v -9.035687 2.4 3.499679
v -8.935051 2.3 3.558888
v -8.695115 2.009995 3.278065
v -8.695115 2.3 3.278065
v -8.50598 1.780975 3.12554
v -8.701797 2.018515 2.956046
v -8.695115 2.009995 3.278065
v -8.701797 2.3 2.956046
v -8.695115 2.3 3.278065
v -8.695115 2.009995 3.278065
v -8.701797 2.018515 2.956046
v -8.695115 2.3 3.278065
v -8.701797 2.3 2.956046
v -8.75456 2.3 2.964533
v -8.81423 2.3 3.242404
v -9.035687 2.3 3.499679
v -8.935051 2.3 3.558888
v -8.695115 2.3 3.278065
v -9.079388 -0.2 2.643785
v -9.941409 -0.2 2.966799
v -8.983608 2.3 2.607893
v -8.983608 -0.2 2.607893
v -9.079388 -0.2 2.643785
v -9.079388 2.3 2.643784
v -9.941409 -0.2 2.966799
v -9.035687 -0.2 3.499679
v -9.035687 2.3 3.499679
v -9.035687 -0.2 3.499679
v -8.935052 -0.2 3.558888
v -8.935051 2.3 3.558888
v -8.695115 -0.2 3.278065
v -8.935051 2.3 3.558888
v -8.935052 -0.2 3.558888
v -8.695115 2.009995 3.278065
v -8.701797 2.3 2.956046
v -8.983608 2.3 2.607893
v -9.079388 2.3 2.643784
v -8.75456 2.3 2.964533
v -8.701797 2.3 2.956046
v -8.983608 -0.2 2.607893
v -8.983608 2.3 2.607893
v -8.701797 -0.2000001 2.956046
v -8.701797 2.018515 2.956046
v -8.465995 -0.2 3.138044
v -8.50598 1.780975 3.12554
v -8.695115 2.009995 3.278065
v -8.695115 -0.2 3.278065
v -8.50598 1.780975 3.12554
v -8.465995 -0.2 3.138044
v -8.701797 -0.2000001 2.956046
v -8.701797 2.018515 2.956046
f 1 2 3
f 1 3 4
f 5 6 7
f 5 7 8
f 9 10 11
f 9 11 12
f 13 14 15
f 13 15 16
f 17 18 19
f 17 19 20
f 21 22 23
f 22 21 24
f 25 24 21
f 24 25 26
f 27 28 29
f 27 29 30
f 61 62 63
f 64 65 66
f 65 64 67
f 65 67 68
f 69 70 71
f 69 71 72
f 38 73 74
f 38 74 35
f 75 76 77
f 75 77 78
f 34 79 80
f 34 80 31
f 81 82 83
f 81 83 84
f 85 86 87
f 86 85 88
f 86 88 89
f 90 91 92
f 90 92 93
f 94 95 96
f 95 94 97
f 97 94 98
f 97 98 99
f 100 101 102
f 101 103 102
f 103 101 104
f 105 106 107
f 105 107 108
f 109 110 111
f 110 109 112
f 112 109 113
f 109 114 115
f 109 115 116
f 117 118 119
f 117 119 120
f 121 122 123
f 122 121 124
f 124 121 125
f 124 125 126
f 127 128 129
f 127 129 130
f 131 132 133
f 132 131 134
f 134 131 135
f 134 135 136
f 137 138 139
f 138 137 140
f 140 137 141
f 142 143 140
f 142 140 144
f 145 146 147
f 145 147 148
f 149 150 151
f 149 151 152
f 153 154 155
f 153 155 156
f 157 158 159
f 157 159 160
f 161 162 163
f 161 163 164
f 165 166 167
f 165 167 168
f 169 170 171
f 170 169 172
f 173 172 169
f 172 173 174
f 175 176 177
f 175 177 178
f 209 210 211
f 212 213 214
f 213 212 215
f 213 215 216
f 217 218 219
f 217 219 220
f 186 221 222
f 186 222 183
f 223 224 225
f 223 225 226
f 182 227 228
f 182 228 179
f 229 230 231
f 229 231 232
f 233 234 235
f 234 233 236
f 234 236 237
f 238 239 240
f 238 240 241
f 242 243 244
f 243 242 245
f 245 242 246
f 245 246 247
f 248 249 250
f 249 251 250
f 251 249 252
f 253 254 255
f 253 255 256
f 257 258 259
f 258 257 260
f 260 257 261
f 257 262 263
f 257 263 264
f 265 266 267
f 265 267 268
f 269 270 271
f 270 269 272
f 272 269 273
f 272 273 274
f 275 276 277
f 275 277 278
f 279 280 281
f 280 279 282
f 282 279 283
f 282 283 284
f 285 286 287
f 286 285 288
f 288 285 289
f 290 291 288
f 290 288 292
f 293 294 295
f 293 295 296
f 297 298 299
f 300 301 302
f 300 302 303
f 304 305 306
f 304 306 307
f 308 309 310
f 308 310 311
f 312 313 314
f 312 314 315
f 316 317 318
f 316 318 319
f 320 321 322
f 322 321 323
f 348 349 350
f 351 352 353
f 351 353 354
f 355 356 357
f 355 357 358
f 331 359 360
f 331 360 328
f 361 362 363
f 361 363 364
f 327 365 366
f 327 366 324
f 367 368 369
f 367 369 370
f 371 372 373
f 372 371 374
f 372 374 375
f 376 377 378
f 376 378 379
f 380 381 382
f 381 380 383
f 383 380 384
f 385 386 387
f 385 387 388
f 389 390 391
f 389 391 392
f 393 394 395
f 393 395 396
f 397 398 399
f 400 401 402
f 400 402 403
f 404 405 406
f 404 406 407
f 408 409 410
f 408 410 411
f 412 413 414
f 412 414 415
f 416 417 418
f 416 418 419
f 420 421 422
f 422 421 423
f 448 449 450
f 451 452 453
f 451 453 454
f 455 456 457
f 455 457 458
f 431 459 460
f 431 460 428
f 461 462 463
f 461 463 464
f 427 465 466
f 427 466 424
f 467 468 469
f 467 469 470
f 471 472 473
f 472 471 474
f 472 474 475
f 476 477 478
f 476 478 479
f 480 481 482
f 481 480 483
f 483 480 484
f 485 486 487
f 485 487 488
f 489 490 491
f 489 491 492
f 493 494 495
f 493 495 496
f 497 498 499
f 497 499 500
f 501 502 503
f 501 503 504
f 505 506 507
f 505 507 508
f 509 510 511
f 509 511 512
f 513 514 515
f 513 515 516
f 517 518 519
f 518 517 520
f 520 517 521
f 522 523 524
f 522 524 525
f 526 527 528
f 526 528 529
f 530 531 532
f 530 532 533
f 534 535 536
f 534 536 537
f 538 539 540
f 538 540 541
f 542 543 544
f 542 544 545
f 546 547 548
f 546 548 549
f 550 551 552
f 550 552 553
f 554 555 556
f 554 556 557
f 558 559 560
f 558 560 561
f 562 563 564
f 562 564 565
f 566 567 568
f 566 568 569
f 570 571 572
f 570 572 573
f 574 575 576
f 574 576 577
f 578 579 580
f 578 580 581
f 582 583 584
f 582 584 585
f 586 587 588
f 586 588 589
f 590 591 592
f 590 592 593
f 594 595 596
f 594 596 597
f 598 599 600
f 598 600 601
f 602 603 604
f 602 604 605
f 606 607 608
f 606 608 609
f 610 611 612
f 610 612 613
f 614 615 616
f 614 616 617
f 739 740 741
f 742 743 744
f 745 746 747
f 745 747 748
f 749 750 751
f 749 751 752
f 752 753 749
f 752 754 753
f 625 755 756
f 625 756 622
f 757 758 759
f 757 759 760
f 621 761 762
f 621 762 618
f 763 764 765
f 763 765 766
f 767 768 769
f 768 767 770
f 771 772 773
f 771 773 774
f 775 776 777
f 776 775 778
f 778 775 779
f 780 781 782
f 780 782 783
f 784 785 786
f 784 786 787
f 788 789 790
f 788 790 791
f 792 793 794
f 792 794 795
f 796 797 798
f 796 798 799
f 800 796 799
f 800 799 801
f 802 803 804
f 802 804 805
f 806 807 808
f 806 808 809
f 810 809 811
f 810 812 809
f 813 812 810
f 813 814 812
f 814 815 816
f 814 816 817
f 818 819 820
f 818 820 821
f 822 823 824
f 822 824 825
f 826 827 828
f 826 828 829
f 830 831 832
f 830 832 833
f 834 835 836
f 834 836 837
f 838 839 840
f 838 840 841
f 842 843 844
f 842 844 845
f 846 847 848
f 846 848 849
f 850 851 852
f 850 852 853
f 854 855 856
f 854 856 857
f 858 859 860
f 858 860 861
f 862 863 864
f 862 864 865
f 866 867 868
f 866 868 869
f 870 871 872
f 870 872 873
f 874 875 876
f 874 876 877
f 878 879 880
f 878 880 881
f 882 883 881
f 882 881 884
f 885 886 887
f 885 887 888
f 889 885 890
f 889 890 891
f 892 893 894
f 892 894 895
f 896 897 898
f 896 898 899
f 900 901 902
f 900 902 903
f 904 905 906
f 904 906 907
f 908 909 910
f 908 910 911
f 912 913 914
f 912 914 915
f 916 917 918
f 916 918 919
f 920 921 922
f 920 922 923
f 924 925 926
f 924 926 927
f 928 929 930
f 928 930 931
f 932 933 934
f 932 934 935
f 936 937 938
f 936 938 939
f 940 941 942
f 940 942 943
f 944 945 946
f 944 946 947
f 948 949 950
f 948 950 951
f 952 953 954
f 952 954 955
f 956 957 958
f 956 958 959
f 960 961 962
f 961 960 963
f 963 960 964
f 990 991 992
f 993 994 995
f 996 997 998
f 996 998 999
f 1000 1001 1002
f 1000 1002 1003
f 1003 1004 1005
f 1003 1005 1006
f 972 1007 1008
f 972 1008 969
f 1009 1010 1011
f 1009 1011 1012
f 968 1013 1014
f 968 1014 965
f 1015 1016 1017
f 1015 1017 1018
f 1019 1020 1021
f 1020 1019 1022
f 1023 1024 1025
f 1023 1025 1026
f 1027 1028 1029
f 1028 1027 1030
f 1030 1027 1031
f 1032 1033 1034
f 1032 1034 1035
f 1036 1037 1038
f 1036 1038 1039
