v -1.057134 2.3 -8.874863
v -1.057133 2.4 -8.874863
v -0.315477 2.4 -9.587967
v -0.315477 2.3 -9.587967
v -0.315477 2.3 -9.587967
v -0.315477 2.4 -9.587967
v 0.3560396 2.399999 -8.683087
v 0.3560396 2.3 -8.683087
v -0.6263897 2.3 -8.438765
v -0.1432383 2.3 -8.699121
v -0.1432385 2.369131 -8.699121
v -0.6263897 2.324338 -8.438765
v -0.6263897 2.3 -8.438765
v -0.6263897 2.324338 -8.438765
v -1.057133 2.4 -8.874863
v -1.057134 2.3 -8.874863
v 0.3560396 2.3 -8.683087
v 0.3560396 2.399999 -8.683087
v -0.1432385 2.369131 -8.699121
v -0.1432383 2.3 -8.699121
v -0.315477 2.4 -9.587967
v -0.1432385 2.369131 -8.699121
v 0.3560396 2.399999 -8.683087
v -0.6263897 2.324338 -8.438765
v -1.057133 2.4 -8.874863
v -0.1543542 1.842983 -8.09743
v -0.143463 1.864697 -8.082039
v -0.04703501 1.892544 -7.728066
v -0.05791089 1.84936 -7.743328
v -0.141198 1.817589 -7.27663
v -0.1303586 1.848744 -7.261679
v -0.3695883 1.846743 -7.451444
v -0.380422 1.83673 -7.466346
v -0.4721314 1.906989 -8.066748
v -0.461266 1.909395 -8.051578
v -0.143463 1.864697 -8.082039
v -0.1543542 1.842983 -8.09743
v -0.05791089 1.84936 -7.743328
v -0.04703501 1.892544 -7.728066
v 0.2722011 1.873733 -7.445715
v 0.2613187 1.830549 -7.46103
v -0.1426396 1.907176 -7.645236
v 0.1333236 1.860149 -7.288077
v 0.2722011 1.873733 -7.445715
v -0.04703501 1.892544 -7.728066
v -0.3695883 1.846743 -7.451444
v -0.1303586 1.848744 -7.261679
v 0.1333236 1.860149 -7.288077
v -0.1426396 1.907176 -7.645236
v -0.5566213 1.855596 -7.737082
v -0.3695883 1.846743 -7.451444
v -0.1426396 1.907176 -7.645236
v -0.461266 1.909395 -8.051578
v -0.461266 1.909395 -8.051578
v -0.1426396 1.907176 -7.645236
v -0.04703501 1.892544 -7.728066
v -0.143463 1.864697 -8.082039
v -0.380422 1.83673 -7.466346
v -0.3695883 1.846743 -7.451444
v -0.5566213 1.855596 -7.737082
v -0.5674594 1.831931 -7.752022
v 0.1224622 1.816966 -7.303215
v 0.1333236 1.860149 -7.288077
v -0.1303586 1.848744 -7.261679
v -0.141198 1.817589 -7.27663
v 0.2613187 1.830549 -7.46103
v 0.2722011 1.873733 -7.445715
v 0.1333236 1.860149 -7.288077
v 0.1224622 1.816966 -7.303215
v -0.5674594 1.831931 -7.752022
v -0.5566213 1.855596 -7.737082
v -0.461266 1.909395 -8.051578
v -0.4721314 1.906989 -8.066748
v -1.001584 1.446423 -7.737968
v -0.9949749 1.468137 -7.729002
v -0.9367402 1.495985 -7.518836
v -0.9433434 1.452801 -7.527754
v -1.034466 1.42103 -7.401091
v -1.027872 1.452184 -7.392252
v -1.133429 1.450183 -7.344507
v -1.140016 1.44017 -7.35329
v -1.195218 1.51043 -7.712933
v -1.188619 1.512835 -7.70405
v -0.9949749 1.468137 -7.729002
v -1.001584 1.446423 -7.737968
v -0.9433434 1.452801 -7.527754
v -0.9367402 1.495985 -7.518836
v -0.9239609 1.477173 -7.473052
v -0.930563 1.43399 -7.481958
v -0.9950395 1.510617 -7.466659
v -0.9596026 1.46359 -7.421158
v -0.9239609 1.477173 -7.473052
v -0.9367402 1.495985 -7.518836
v -1.133429 1.450183 -7.344507
v -1.027872 1.452184 -7.392252
v -0.9596026 1.46359 -7.421158
v -0.9950395 1.510617 -7.466659
v -1.24712 1.459036 -7.513191
v -1.133429 1.450183 -7.344507
v -0.9950395 1.510617 -7.466659
v -1.188619 1.512835 -7.70405
v -1.188619 1.512835 -7.70405
v -0.9950395 1.510617 -7.466659
v -0.9367402 1.495985 -7.518836
v -0.9949749 1.468137 -7.729002
v -1.140016 1.44017 -7.35329
v -1.133429 1.450183 -7.344507
v -1.24712 1.459036 -7.513191
v -1.253709 1.435371 -7.521987
v -0.9662009 1.420407 -7.430033
v -0.9596026 1.46359 -7.421158
v -1.027872 1.452184 -7.392252
v -1.034466 1.42103 -7.401091
v -0.930563 1.43399 -7.481958
v -0.9239609 1.477173 -7.473052
v -0.9596026 1.46359 -7.421158
v -0.9662009 1.420407 -7.430033
v -1.253709 1.435371 -7.521987
v -1.24712 1.459036 -7.513191
v -1.188619 1.512835 -7.70405
v -1.195218 1.51043 -7.712933
v -1.057134 2.3 -8.874863
v -1.057133 2.4 -8.874863
v -0.315477 2.4 -9.587967
v -0.315477 2.3 -9.587967
v -0.315477 2.3 -9.587967
v -0.315477 2.4 -9.587967
v 0.3560396 2.399999 -8.683087
v 0.3560396 2.3 -8.683087
v -0.6263897 2.3 -8.438765
v -0.1432383 2.3 -8.699121
v -0.1432385 2.369131 -8.699121
v -0.6263897 2.324338 -8.438765
v -0.6263897 2.3 -8.438765
v -0.6263897 2.324338 -8.438765
v -1.057133 2.4 -8.874863
v -1.057134 2.3 -8.874863
v 0.3560396 2.3 -8.683087
v 0.3560396 2.399999 -8.683087
v -0.1432385 2.369131 -8.699121
v -0.1432383 2.3 -8.699121
v -0.315477 2.4 -9.587967
v -0.1432385 2.369131 -8.699121
v 0.3560396 2.399999 -8.683087
v -0.6263897 2.324338 -8.438765
v -1.057133 2.4 -8.874863
v -0.1543542 1.842983 -8.09743
v -0.143463 1.864697 -8.082039
v -0.04703501 1.892544 -7.728066
v -0.05791089 1.84936 -7.743328
v -0.141198 1.817589 -7.27663
v -0.1303586 1.848744 -7.261679
v -0.3695883 1.846743 -7.451444
v -0.380422 1.83673 -7.466346
v -0.4721314 1.906989 -8.066748
v -0.461266 1.909395 -8.051578
v -0.143463 1.864697 -8.082039
v -0.1543542 1.842983 -8.09743
v -0.05791089 1.84936 -7.743328
v -0.04703501 1.892544 -7.728066
v 0.2722011 1.873733 -7.445715
v 0.2613187 1.830549 -7.46103
v -0.1426396 1.907176 -7.645236
v 0.1333236 1.860149 -7.288077
v 0.2722011 1.873733 -7.445715
v -0.04703501 1.892544 -7.728066
v -0.3695883 1.846743 -7.451444
v -0.1303586 1.848744 -7.261679
v 0.1333236 1.860149 -7.288077
v -0.1426396 1.907176 -7.645236
v -0.5566213 1.855596 -7.737082
v -0.3695883 1.846743 -7.451444
v -0.1426396 1.907176 -7.645236
v -0.461266 1.909395 -8.051578
v -0.461266 1.909395 -8.051578
v -0.1426396 1.907176 -7.645236
v -0.04703501 1.892544 -7.728066
v -0.143463 1.864697 -8.082039
v -0.380422 1.83673 -7.466346
v -0.3695883 1.846743 -7.451444
v -0.5566213 1.855596 -7.737082
v -0.5674594 1.831931 -7.752022
v 0.1224622 1.816966 -7.303215
v 0.1333236 1.860149 -7.288077
v -0.1303586 1.848744 -7.261679
v -0.141198 1.817589 -7.27663
v 0.2613187 1.830549 -7.46103
v 0.2722011 1.873733 -7.445715
v 0.1333236 1.860149 -7.288077
v 0.1224622 1.816966 -7.303215
v -0.5674594 1.831931 -7.752022
v -0.5566213 1.855596 -7.737082
v -0.461266 1.909395 -8.051578
v -0.4721314 1.906989 -8.066748
v -1.001584 1.446423 -7.737968
v -0.9949749 1.468137 -7.729002
v -0.9367402 1.495985 -7.518836
v -0.9433434 1.452801 -7.527754
v -1.034466 1.42103 -7.401091
v -1.027872 1.452184 -7.392252
v -1.133429 1.450183 -7.344507
v -1.140016 1.44017 -7.35329
v -1.195218 1.51043 -7.712933
v -1.188619 1.512835 -7.70405
v -0.9949749 1.468137 -7.729002
v -1.001584 1.446423 -7.737968
v -0.9433434 1.452801 -7.527754
v -0.9367402 1.495985 -7.518836
v -0.9239609 1.477173 -7.473052
v -0.930563 1.43399 -7.481958
v -0.9950395 1.510617 -7.466659
v -0.9596026 1.46359 -7.421158
v -0.9239609 1.477173 -7.473052
v -0.9367402 1.495985 -7.518836
v -1.133429 1.450183 -7.344507
v -1.027872 1.452184 -7.392252
v -0.9596026 1.46359 -7.421158
v -0.9950395 1.510617 -7.466659
v -1.24712 1.459036 -7.513191
v -1.133429 1.450183 -7.344507
v -0.9950395 1.510617 -7.466659
v -1.188619 1.512835 -7.70405
v -1.188619 1.512835 -7.70405
v -0.9950395 1.510617 -7.466659
v -0.9367402 1.495985 -7.518836
v -0.9949749 1.468137 -7.729002
v -1.140016 1.44017 -7.35329
v -1.133429 1.450183 -7.344507
v -1.24712 1.459036 -7.513191
v -1.253709 1.435371 -7.521987
v -0.9662009 1.420407 -7.430033
v -0.9596026 1.46359 -7.421158
v -1.027872 1.452184 -7.392252
v -1.034466 1.42103 -7.401091
v -0.930563 1.43399 -7.481958
v -0.9239609 1.477173 -7.473052
v -0.9596026 1.46359 -7.421158
v -0.9662009 1.420407 -7.430033
v -1.253709 1.435371 -7.521987
v -1.24712 1.459036 -7.513191
v -1.188619 1.512835 -7.70405
v -1.195218 1.51043 -7.712933
v -1.13954 2.3 -8.795629
v -0.6531856 2.009995 -8.375789
v -0.6531858 2.3 -8.375789
v -0.3703326 1.780975 -8.340465
v -0.1205642 2.018515 -8.290359
v -0.6531856 2.009995 -8.375789
v -0.1205641 2.3 -8.290359
v -0.6531858 2.3 -8.375789
v -0.6531856 2.009995 -8.375789
v -0.1205642 2.018515 -8.290359
v -0.6531858 2.3 -8.375789
v -0.1205641 2.3 -8.290359
v -0.1432383 2.3 -8.699121
v -0.6263897 2.3 -8.438765
v -1.13954 2.3 -8.795629
v -1.057134 2.3 -8.874863
v 0.3560397 -0.2 -8.683087
v -0.315477 -0.2 -9.587967
v 0.4306532 2.3 -8.582546
v 0.4306532 -0.2 -8.582546
v 0.3560397 -0.2 -8.683087
v 0.3560396 2.3 -8.683087
v -0.315477 -0.2 -9.587967
v -1.057133 -0.2 -8.874863
v -1.057134 2.3 -8.874863
v -1.057133 -0.2 -8.874863
v -1.13954 -0.2 -8.795629
v -1.13954 2.3 -8.795629
v -0.6531857 -0.2 -8.37579
v -1.13954 2.3 -8.795629
v -1.13954 -0.2 -8.795629
v -0.6531856 2.009995 -8.375789
v -0.1205641 2.3 -8.290359
v 0.4306532 2.3 -8.582546
v 0.3560396 2.3 -8.683087
v -0.1432383 2.3 -8.699121
v -0.1205641 2.3 -8.290359
v 0.4306532 -0.2 -8.582546
v 0.4306532 2.3 -8.582546
v -0.1205641 -0.2000001 -8.29036
v -0.1205642 2.018515 -8.290359
v -0.3865522 -0.2 -8.293262
v -0.3703326 1.780975 -8.340465
v -0.6531856 2.009995 -8.375789
v -0.6531857 -0.2 -8.37579
v -0.3703326 1.780975 -8.340465
v -0.3865522 -0.2 -8.293262
v -0.1205641 -0.2000001 -8.29036
v -0.1205642 2.018515 -8.290359
v 0.02342311 -0.2 -7.812666
v -0.1261256 -0.2000001 -8.165728
v -0.1261256 1.826268 -8.165728
v 0.02342317 1.839494 -7.812666
v -0.494332 -0.2000001 -8.097986
v -0.6246144 -0.2 -7.72477
v -0.6246144 1.81675 -7.72477
v -0.4943321 1.90191 -8.097986
v -0.403384 -0.2 -7.445324
v -0.1821536 -0.2000001 -7.165878
v -0.1821536 1.804604 -7.165878
v -0.403384 1.838186 -7.445324
v -0.6246144 -0.2 -7.72477
v -0.6246144 1.81675 -7.72477
v 0.2011744 -0.2 -7.205014
v 0.3188817 -0.2000001 -7.585185
v 0.3188816 1.822031 -7.585185
v 0.2011744 1.801664 -7.205014
v -0.153503 -0.2000001 -7.66039
v 0.2011744 -0.2 -7.205014
v -0.1821536 -0.2000001 -7.165878
v -0.403384 -0.2 -7.445324
v -0.494332 -0.2000001 -8.097986
v -0.6246144 -0.2 -7.72477
v -0.153503 -0.2000001 -7.66039
v -0.1261256 -0.2000001 -8.165728
v 0.02342311 -0.2 -7.812666
v 0.3188817 -0.2000001 -7.585185
v 0.2011744 -0.2 -7.205014
v -0.153503 -0.2000001 -7.66039
v -0.1821536 -0.2000001 -7.165878
v 0.2011744 -0.2 -7.205014
v 0.2011744 1.801664 -7.205014
v -0.1821536 1.804604 -7.165878
v -0.1261256 -0.2000001 -8.165728
v -0.494332 -0.2000001 -8.097986
v -0.4943321 1.90191 -8.097986
v -0.1261256 1.826268 -8.165728
v 0.3188817 -0.2000001 -7.585185
v 0.02342311 -0.2 -7.812666
v 0.02342317 1.839494 -7.812666
v 0.3188816 1.822031 -7.585185
v -0.05791089 1.84936 -7.743328
v 0.02342317 1.839494 -7.812666
v -0.1261256 1.826268 -8.165728
v -0.1543542 1.842983 -8.09743
v -0.4721314 1.906989 -8.066748
v -0.4943321 1.90191 -8.097986
v -0.6246144 1.81675 -7.72477
v -0.5674594 1.831931 -7.752022
v -0.380422 1.83673 -7.466346
v -0.403384 1.838186 -7.445324
v -0.1821536 1.804604 -7.165878
v -0.141198 1.817589 -7.27663
v 0.1224622 1.816966 -7.303215
v 0.2011744 1.801664 -7.205014
v 0.3188816 1.822031 -7.585185
v 0.2613187 1.830549 -7.46103
v -0.1543542 1.842983 -8.09743
v -0.1261256 1.826268 -8.165728
v -0.4943321 1.90191 -8.097986
v -0.4721314 1.906989 -8.066748
v -0.141198 1.817589 -7.27663
v -0.1821536 1.804604 -7.165878
v 0.2011744 1.801664 -7.205014
v 0.1224622 1.816966 -7.303215
v 0.2613187 1.830549 -7.46103
v 0.3188816 1.822031 -7.585185
v 0.02342317 1.839494 -7.812666
v -0.05791089 1.84936 -7.743328
v -0.5674594 1.831931 -7.752022
v -0.6246144 1.81675 -7.72477
v -0.403384 1.838186 -7.445324
v -0.380422 1.83673 -7.466346
v -0.7982807 -0.2 -7.656304
v -0.9842845 -0.2 -7.779462
v -0.9842845 1.429709 -7.779462
v -0.7982807 1.442935 -7.656304
v -1.208701 -0.2 -7.731227
v -1.288573 -0.2000001 -7.504501
v -1.288573 1.420191 -7.504501
v -1.208701 1.505351 -7.731227
v -1.15402 -0.2 -7.340081
v -0.9868462 -0.2 -7.293882
v -0.9868462 1.408045 -7.293882
v -1.15402 1.441627 -7.34008
v -0.7317839 -0.2 -7.306919
v -0.8654144 -0.2 -7.488081
v -0.8654143 1.425472 -7.488081
v -0.7317839 1.405105 -7.306919
v -1.001638 -0.2 -7.475536
v -0.7317839 -0.2 -7.306919
v -0.9868462 -0.2 -7.293882
v -1.15402 -0.2 -7.340081
v -1.208701 -0.2 -7.731227
v -1.001638 -0.2 -7.475536
v -1.288573 -0.2000001 -7.504501
v -0.7982807 -0.2 -7.656304
v -0.8654144 -0.2 -7.488081
v -0.7317839 -0.2 -7.306919
v -1.001638 -0.2 -7.475536
v -0.9842845 -0.2 -7.779462
v -1.001638 -0.2 -7.475536
v -1.208701 -0.2 -7.731227
v -0.9868462 -0.2 -7.293882
v -0.7317839 -0.2 -7.306919
v -0.7317839 1.405105 -7.306919
v -0.9868462 1.408045 -7.293882
v -0.9842845 -0.2 -7.779462
v -1.208701 -0.2 -7.731227
v -1.208701 1.505351 -7.731227
v -0.9842845 1.429709 -7.779462
v -1.288573 -0.2000001 -7.504501
v -1.15402 -0.2 -7.340081
v -1.15402 1.441627 -7.34008
v -1.288573 1.420191 -7.504501
v -0.8654144 -0.2 -7.488081
v -0.7982807 -0.2 -7.656304
v -0.7982807 1.442935 -7.656304
v -0.8654143 1.425472 -7.488081
v -0.9433434 1.452801 -7.527754
v -0.7982807 1.442935 -7.656304
v -0.9842845 1.429709 -7.779462
v -1.001584 1.446423 -7.737968
v -1.195218 1.51043 -7.712933
v -1.208701 1.505351 -7.731227
v -1.288573 1.420191 -7.504501
v -1.253709 1.435371 -7.521987
v -1.140016 1.44017 -7.35329
v -1.15402 1.441627 -7.34008
v -0.9868462 1.408045 -7.293882
v -1.034466 1.42103 -7.401091
v -0.9662009 1.420407 -7.430033
v -0.7317839 1.405105 -7.306919
v -0.8654143 1.425472 -7.488081
v -0.930563 1.43399 -7.481958
v -1.001584 1.446423 -7.737968
v -0.9842845 1.429709 -7.779462
v -1.208701 1.505351 -7.731227
v -1.195218 1.51043 -7.712933
v -1.034466 1.42103 -7.401091
v -0.9868462 1.408045 -7.293882
v -0.7317839 1.405105 -7.306919
v -0.9662009 1.420407 -7.430033
v -0.930563 1.43399 -7.481958
v -0.8654143 1.425472 -7.488081
v -0.7982807 1.442935 -7.656304
v -0.9433434 1.452801 -7.527754
v -1.253709 1.435371 -7.521987
v -1.288573 1.420191 -7.504501
v -1.15402 1.441627 -7.34008
v -1.140016 1.44017 -7.35329
v 0.3560399 2.3 -8.683087
v 0.3560399 2.4 -8.683088
v -0.3154771 2.4 -9.587967
v -0.3154771 2.3 -9.587967
v -0.3154771 2.3 -9.587967
v -0.3154771 2.4 -9.587967
v 0.5834873 2.399999 -9.854255
v 0.5834874 2.3 -9.854255
v 0.7221173 2.3 -8.981665
v 0.8785749 2.3 -9.345961
v 0.8785748 2.373828 -9.345961
v 0.7221174 2.35465 -8.981665
v 0.7221173 2.3 -8.981665
v 0.7221174 2.35465 -8.981665
v 0.3560399 2.4 -8.683088
v 0.3560399 2.3 -8.683087
v 0.5834874 2.3 -9.854255
v 0.5834873 2.399999 -9.854255
v 0.8785748 2.373828 -9.345961
v 0.8785749 2.3 -9.345961
v -0.3154771 2.4 -9.587967
v 0.8785748 2.373828 -9.345961
v 0.5834873 2.399999 -9.854255
v 0.7221174 2.35465 -8.981665
v 0.3560399 2.4 -8.683088
v 0.3560399 2.3 -8.683087
v 0.3560399 2.4 -8.683088
v -0.3154771 2.4 -9.587967
v -0.3154771 2.3 -9.587967
v -0.3154771 2.3 -9.587967
v -0.3154771 2.4 -9.587967
v 0.5834873 2.399999 -9.854255
v 0.5834874 2.3 -9.854255
v 0.7221173 2.3 -8.981665
v 0.8785749 2.3 -9.345961
v 0.8785748 2.373828 -9.345961
v 0.7221174 2.35465 -8.981665
v 0.7221173 2.3 -8.981665
v 0.7221174 2.35465 -8.981665
v 0.3560399 2.4 -8.683088
v 0.3560399 2.3 -8.683087
v 0.5834874 2.3 -9.854255
v 0.5834873 2.399999 -9.854255
v 0.8785748 2.373828 -9.345961
v 0.8785749 2.3 -9.345961
v -0.3154771 2.4 -9.587967
v 0.8785748 2.373828 -9.345961
v 0.5834873 2.399999 -9.854255
v 0.7221174 2.35465 -8.981665
v 0.3560399 2.4 -8.683088
v 0.4306531 2.3 -8.582545
v 0.8413317 2.009995 -8.907773
v 0.8413317 2.3 -8.907773
v 1.119108 1.780975 -9.072629
v 0.939437 2.018515 -9.346172
v 0.8413317 2.009995 -8.907773
v 0.939437 2.3 -9.346172
v 0.8413317 2.3 -8.907773
v 0.8413317 2.009995 -8.907773
v 0.939437 2.018515 -9.346172
v 0.8413317 2.3 -8.907773
v 0.939437 2.3 -9.346172
v 0.8785749 2.3 -9.345961
v 0.7221173 2.3 -8.981665
v 0.3560399 2.3 -8.683087
v 0.4306531 2.3 -8.582545
v 0.8413317 2.3 -8.907773
v 0.5834875 -0.2 -9.854255
v -0.3154771 -0.2 -9.587967
v 0.6833719 2.3 -9.883843
v 0.6833718 -0.2 -9.883842
v 0.5834875 -0.2 -9.854255
v 0.5834874 2.3 -9.854255
v -0.3154771 -0.2 -9.587967
v 0.3560399 -0.2 -8.683087
v 0.3560399 2.3 -8.683087
v 0.3560399 -0.2 -8.683087
v 0.4306529 -0.2 -8.582545
v 0.4306531 2.3 -8.582545
v 0.8413317 -0.2 -8.907773
v 0.4306531 2.3 -8.582545
v 0.4306529 -0.2 -8.582545
v 0.8413317 2.009995 -8.907773
v 0.939437 2.3 -9.346172
v 0.6833719 2.3 -9.883843
v 0.5834874 2.3 -9.854255
v 0.8785749 2.3 -9.345961
v 0.939437 2.3 -9.346172
v 0.6833718 -0.2 -9.883842
v 0.6833719 2.3 -9.883843
v 0.939437 -0.2000001 -9.346172
v 0.939437 2.018515 -9.346172
v 1.162809 -0.2 -9.046788
v 1.119108 1.780975 -9.072629
v 0.8413317 2.009995 -8.907773
v 0.8413317 -0.2 -8.907773
v 1.119108 1.780975 -9.072629
v 1.162809 -0.2 -9.046788
v 0.939437 -0.2000001 -9.346172
v 0.939437 2.018515 -9.346172
v -1.215045 2.399999 -9.990394
v -1.195401 2.35465 -11.15012
v -1.562283 2.373828 -11.03589
v -0.2450227 2.3 -10.53644
v -0.2450227 2.4 -10.53644
v -0.3154768 2.4 -9.587967
v -0.3154769 2.3 -9.587967
v -0.3154769 2.3 -9.587967
v -0.3154768 2.4 -9.587967
v -1.215045 2.399999 -9.990394
v -1.215045 2.3 -9.990394
v -1.195401 2.3 -11.15012
v -1.562283 2.3 -11.03589
v -1.562283 2.373828 -11.03589
v -1.195401 2.35465 -11.15012
v -1.195401 2.3 -11.15012
v -1.195401 2.35465 -11.15012
v -0.2450227 2.4 -10.53644
v -0.2450227 2.3 -10.53644
v -1.215045 2.3 -9.990394
v -1.215045 2.399999 -9.990394
v -1.562283 2.373828 -11.03589
v -1.562283 2.3 -11.03589
v -1.195401 2.35465 -11.15012
v -1.215045 2.399999 -9.990394
v -0.2450227 2.4 -10.53644
v -0.3154768 2.4 -9.587967
v -0.2450227 2.3 -10.53644
v -0.2450227 2.4 -10.53644
v -0.3154768 2.4 -9.587967
v -0.3154769 2.3 -9.587967
v -0.3154769 2.3 -9.587967
v -0.3154768 2.4 -9.587967
v -1.215045 2.399999 -9.990394
v -1.215045 2.3 -9.990394
v -1.195401 2.3 -11.15012
v -1.562283 2.3 -11.03589
v -1.562283 2.373828 -11.03589
v -1.195401 2.35465 -11.15012
v -1.195401 2.3 -11.15012
v -1.195401 2.35465 -11.15012
v -0.2450227 2.4 -10.53644
v -0.2450227 2.3 -10.53644
v -1.215045 2.3 -9.990394
v -1.215045 2.399999 -9.990394
v -1.562283 2.373828 -11.03589
v -1.562283 2.3 -11.03589
v -1.195401 2.35465 -11.15012
v -1.215045 2.399999 -9.990394
v -0.2450227 2.4 -10.53644
v -0.3154768 2.4 -9.587967
v -1.559648 0.2282526 -11.37554
v -1.607302 0.3780841 -11.07179
v -1.232344 0.3199124 -11.26261
v -1.607302 2.3 -11.07179
v -1.232344 2.3 -11.26261
v -1.232344 0.3199124 -11.26261
v -1.607302 0.3780841 -11.07179
v -1.232344 2.3 -11.26261
v -1.607302 2.3 -11.07179
v -1.562283 2.3 -11.03589
v -1.195401 2.3 -11.15012
v -1.215045 -0.2 -9.990394
v -0.3154768 -0.2 -9.587967
v -1.314997 2.3 -10.03511
v -1.314997 -0.2 -10.03511
v -1.215045 -0.2 -9.990394
v -1.215045 2.3 -9.990394
v -0.3154768 -0.2 -9.587967
v -0.2450227 -0.2 -10.53644
v -0.2450227 2.3 -10.53644
v -0.2450227 -0.2 -10.53644
v -0.2371945 -0.2 -10.64182
v -0.2371945 2.3 -10.64182
v -1.232344 -0.2 -11.26261
v -0.2371945 2.3 -10.64182
v -0.2371945 -0.2 -10.64182
v -1.232344 0.3199124 -11.26261
v -1.232344 2.3 -11.26261
v -1.607302 2.3 -11.07179
v -1.314997 2.3 -10.03511
v -1.215045 2.3 -9.990394
v -1.562283 2.3 -11.03589
v -1.607302 2.3 -11.07179
v -1.314997 -0.2 -10.03511
v -1.314997 2.3 -10.03511
v -1.607302 -0.2 -11.07179
v -1.607302 0.3780841 -11.07179
v -1.195401 2.3 -11.15012
v -0.2450227 2.3 -10.53644
v -0.2371945 2.3 -10.64182
v -1.232344 2.3 -11.26261
v -1.559648 -0.2000001 -11.37554
v -1.559648 0.2282526 -11.37554
v -1.232344 0.3199124 -11.26261
v -1.232344 -0.2 -11.26261
v -1.559648 0.2282526 -11.37554
v -1.559648 -0.2000001 -11.37554
v -1.607302 -0.2 -11.07179
v -1.607302 0.3780841 -11.07179
v 0.583487 2.3 -9.854256
v 0.583487 2.4 -9.854256
v -0.3154768 2.4 -9.587967
v -0.3154769 2.3 -9.587967
v -0.3154769 2.3 -9.587967
v -0.3154768 2.4 -9.587967
v -0.2450222 2.399999 -10.53644
v -0.2450221 2.3 -10.53644
v 0.4455093 2.3 -10.24451
v 0.210288 2.3 -10.52419
v 0.210288 2.373828 -10.52419
v 0.4455092 2.35465 -10.24451
v 0.4455093 2.3 -10.24451
v 0.4455092 2.35465 -10.24451
v 0.583487 2.4 -9.854256
v 0.583487 2.3 -9.854256
v -0.2450221 2.3 -10.53644
v -0.2450222 2.399999 -10.53644
v 0.210288 2.373828 -10.52419
v 0.210288 2.3 -10.52419
v -0.3154768 2.4 -9.587967
v 0.210288 2.373828 -10.52419
v -0.2450222 2.399999 -10.53644
v 0.4455092 2.35465 -10.24451
v 0.583487 2.4 -9.854256
v 0.583487 2.3 -9.854256
v 0.583487 2.4 -9.854256
v -0.3154768 2.4 -9.587967
v -0.3154769 2.3 -9.587967
v -0.3154769 2.3 -9.587967
v -0.3154768 2.4 -9.587967
v -0.2450222 2.399999 -10.53644
v -0.2450221 2.3 -10.53644
v 0.4455093 2.3 -10.24451
v 0.210288 2.3 -10.52419
v 0.210288 2.373828 -10.52419
v 0.4455092 2.35465 -10.24451
v 0.4455093 2.3 -10.24451
v 0.4455092 2.35465 -10.24451
v 0.583487 2.4 -9.854256
v 0.583487 2.3 -9.854256
v -0.2450221 2.3 -10.53644
v -0.2450222 2.399999 -10.53644
v 0.210288 2.373828 -10.52419
v 0.210288 2.3 -10.52419
v -0.3154768 2.4 -9.587967
v 0.210288 2.373828 -10.52419
v -0.2450222 2.399999 -10.53644
v 0.4455092 2.35465 -10.24451
v 0.583487 2.4 -9.854256
v 0.683372 2.3 -9.883842
v 0.53337 2.009995 -10.30851
v 0.53337 2.3 -10.30851
v 0.4775798 1.780975 -10.58543
v 0.2262907 2.018515 -10.57288
v 0.53337 2.009995 -10.30851
v 0.2262908 2.3 -10.57288
v 0.53337 2.3 -10.30851
v 0.53337 2.009995 -10.30851
v 0.2262907 2.018515 -10.57288
v 0.53337 2.3 -10.30851
v 0.2262908 2.3 -10.57288
v 0.210288 2.3 -10.52419
v 0.4455093 2.3 -10.24451
v 0.583487 2.3 -9.854256
v 0.683372 2.3 -9.883842
v 0.53337 2.3 -10.30851
v -0.2450221 -0.2 -10.53644
v -0.3154769 -0.2 -9.587967
v -0.2371945 2.3 -10.64182
v -0.2371944 -0.2 -10.64182
v -0.2450221 -0.2 -10.53644
v -0.2450221 2.3 -10.53644
v -0.3154769 -0.2 -9.587967
v 0.583487 -0.2 -9.854256
v 0.583487 2.3 -9.854256
v 0.583487 -0.2 -9.854256
v 0.6833719 -0.2 -9.883842
v 0.683372 2.3 -9.883842
v 0.53337 -0.2 -10.30851
v 0.683372 2.3 -9.883842
v 0.6833719 -0.2 -9.883842
v 0.53337 2.009995 -10.30851
v 0.2262908 2.3 -10.57288
v -0.2371945 2.3 -10.64182
v -0.2450221 2.3 -10.53644
v 0.210288 2.3 -10.52419
v 0.2262908 2.3 -10.57288
v -0.2371944 -0.2 -10.64182
v -0.2371945 2.3 -10.64182
v 0.2262908 -0.2000001 -10.57288
v 0.2262907 2.018515 -10.57288
v 0.5079958 -0.2 -10.6065
v 0.4775798 1.780975 -10.58543
v 0.53337 2.009995 -10.30851
v 0.53337 -0.2 -10.30851
v 0.4775798 1.780975 -10.58543
v 0.5079958 -0.2 -10.6065
v 0.2262908 -0.2000001 -10.57288
v 0.2262907 2.018515 -10.57288
v -1.215045 2.3 -9.990393
v -1.215045 2.4 -9.990393
v -0.3154774 2.4 -9.587967
v -0.3154771 2.3 -9.587967
v -0.3154771 2.3 -9.587967
v -0.3154774 2.4 -9.587967
v -1.057134 2.399999 -8.874863
v -1.057134 2.3 -8.874863
v -1.39672 2.3 -9.590119
v -1.415501 2.3 -9.205707
v -1.415501 2.373828 -9.205707
v -1.39672 2.35465 -9.590119
v -1.39672 2.3 -9.590119
v -1.39672 2.35465 -9.590119
v -1.215045 2.4 -9.990393
v -1.215045 2.3 -9.990393
v -1.057134 2.3 -8.874863
v -1.057134 2.399999 -8.874863
v -1.415501 2.373828 -9.205707
v -1.415501 2.3 -9.205707
v -0.3154774 2.4 -9.587967
v -1.415501 2.373828 -9.205707
v -1.057134 2.399999 -8.874863
v -1.39672 2.35465 -9.590119
v -1.215045 2.4 -9.990393
v -1.215045 2.3 -9.990393
v -1.215045 2.4 -9.990393
v -0.3154774 2.4 -9.587967
v -0.3154771 2.3 -9.587967
v -0.3154771 2.3 -9.587967
v -0.3154774 2.4 -9.587967
v -1.057134 2.399999 -8.874863
v -1.057134 2.3 -8.874863
v -1.39672 2.3 -9.590119
v -1.415501 2.3 -9.205707
v -1.415501 2.373828 -9.205707
v -1.39672 2.35465 -9.590119
v -1.39672 2.3 -9.590119
v -1.39672 2.35465 -9.590119
v -1.215045 2.4 -9.990393
v -1.215045 2.3 -9.990393
v -1.057134 2.3 -8.874863
v -1.057134 2.399999 -8.874863
v -1.415501 2.373828 -9.205707
v -1.415501 2.3 -9.205707
v -0.3154774 2.4 -9.587967
v -1.415501 2.373828 -9.205707
v -1.057134 2.399999 -8.874863
v -1.39672 2.35465 -9.590119
v -1.215045 2.4 -9.990393
v -1.314997 2.3 -10.03511
v -1.51407 2.009995 -9.600857
v -1.51407 2.3 -9.600857
v -1.675891 1.780975 -9.34549
v -1.464218 2.018515 -9.178475
v -1.51407 2.009995 -9.600857
v -1.464218 2.3 -9.178475
v -1.51407 2.3 -9.600857
v -1.51407 2.009995 -9.600857
v -1.464218 2.018515 -9.178475
v -1.51407 2.3 -9.600857
v -1.464218 2.3 -9.178475
v -1.415501 2.3 -9.205707
v -1.39672 2.3 -9.590119
v -1.215045 2.3 -9.990393
v -1.314997 2.3 -10.03511
v -1.51407 2.3 -9.600857
v -1.057134 -0.2 -8.874863
v -0.3154771 -0.2 -9.587967
v -1.13954 2.3 -8.795629
v -1.13954 -0.2 -8.795629
v -1.057134 -0.2 -8.874863
v -1.057134 2.3 -8.874863
v -0.3154771 -0.2 -9.587967
v -1.215045 -0.2 -9.990393
v -1.215045 2.3 -9.990393
v -1.215045 -0.2 -9.990393
v -1.314997 -0.2 -10.03511
v -1.314997 2.3 -10.03511
v -1.51407 -0.2 -9.600857
v -1.314997 2.3 -10.03511
v -1.314997 -0.2 -10.03511
v -1.51407 2.009995 -9.600857
v -1.464218 2.3 -9.178475
v -1.13954 2.3 -8.795629
v -1.057134 2.3 -8.874863
v -1.415501 2.3 -9.205707
v -1.464218 2.3 -9.178475
v -1.13954 -0.2 -8.795629
v -1.13954 2.3 -8.795629
v -1.464218 -0.2000001 -9.178475
v -1.464218 2.018515 -9.178475
v -1.716083 -0.2 -9.350421
v -1.675891 1.780975 -9.34549
v -1.51407 2.009995 -9.600857
v -1.51407 -0.2 -9.600857
v -1.675891 1.780975 -9.34549
v -1.716083 -0.2 -9.350421
v -1.464218 -0.2000001 -9.178475
v -1.464218 2.018515 -9.178475
f 1 2 3
f 1 3 4
f 5 6 7
f 5 7 8
f 9 10 11
f 9 11 12
f 13 14 15
f 13 15 16
f 17 18 19
f 17 19 20
f 21 22 23
f 22 21 24
f 24 21 25
f 26 27 28
f 26 28 29
f 30 31 32
f 30 32 33
f 34 35 36
f 34 36 37
f 38 39 40
f 38 40 41
f 42 43 44
f 42 44 45
f 46 47 48
f 46 48 49
f 50 51 52
f 50 52 53
f 54 55 56
f 54 56 57
f 58 59 60
f 58 60 61
f 62 63 64
f 62 64 65
f 66 67 68
f 66 68 69
f 70 71 72
f 70 72 73
f 74 75 76
f 74 76 77
f 78 79 80
f 78 80 81
f 82 83 84
f 82 84 85
f 86 87 88
f 86 88 89
f 90 91 92
f 90 92 93
f 94 95 96
f 94 96 97
f 98 99 100
f 98 100 101
f 102 103 104
f 102 104 105
f 106 107 108
f 106 108 109
f 110 111 112
f 110 112 113
f 114 115 116
f 114 116 117
f 118 119 120
f 118 120 121
f 243 244 245
f 246 247 248
f 249 250 251
f 249 251 252
f 253 254 255
f 253 255 256
f 256 257 253
f 256 258 257
f 129 259 260
f 129 260 126
f 261 262 263
f 261 263 264
f 125 265 266
f 125 266 122
f 267 268 269
f 267 269 270
f 271 272 273
f 272 271 274
f 275 276 277
f 275 277 278
f 279 280 281
f 280 279 282
f 282 279 283
f 284 285 286
f 284 286 287
f 288 289 290
f 288 290 291
f 292 293 294
f 292 294 295
f 296 297 298
f 296 298 299
f 300 301 302
f 300 302 303
f 304 300 303
f 304 303 305
f 306 307 308
f 306 308 309
f 310 311 312
f 310 312 313
f 314 313 315
f 314 316 313
f 317 316 314
f 317 318 316
f 318 319 320
f 318 320 321
f 322 323 324
f 322 324 325
f 326 327 328
f 326 328 329
f 330 331 332
f 330 332 333
f 334 335 336
f 334 336 337
f 338 339 340
f 338 340 341
f 342 343 344
f 342 344 345
f 346 347 348
f 346 348 349
f 350 351 352
f 350 352 353
f 354 355 356
f 354 356 357
f 358 359 360
f 358 360 361
f 362 363 364
f 362 364 365
f 366 367 368
f 366 368 369
f 370 371 372
f 370 372 373
f 374 375 376
f 374 376 377
f 378 379 380
f 378 380 381
f 382 383 384
f 382 384 385
f 386 387 385
f 386 385 388
f 389 390 391
f 389 391 392
f 393 389 394
f 393 394 395
f 396 397 398
f 396 398 399
f 400 401 402
f 400 402 403
f 404 405 406
f 404 406 407
f 408 409 410
f 408 410 411
f 412 413 414
f 412 414 415
f 416 417 418
f 416 418 419
f 420 421 422
f 420 422 423
f 424 425 426
f 424 426 427
f 428 429 430
f 428 430 431
f 432 433 434
f 432 434 435
f 436 437 438
f 436 438 439
f 440 441 442
f 440 442 443
f 444 445 446
f 444 446 447
f 448 449 450
f 448 450 451
f 452 453 454
f 452 454 455
f 456 457 458
f 456 458 459
f 460 461 462
f 460 462 463
f 464 465 466
f 465 464 467
f 467 464 468
f 494 495 496
f 497 498 499
f 500 501 502
f 500 502 503
f 504 505 506
f 504 506 507
f 507 508 509
f 507 509 510
f 476 511 512
f 476 512 473
f 513 514 515
f 513 515 516
f 472 517 518
f 472 518 469
f 519 520 521
f 519 521 522
f 523 524 525
f 524 523 526
f 527 528 529
f 527 529 530
f 531 532 533
f 532 531 534
f 534 531 535
f 536 537 538
f 536 538 539
f 540 541 542
f 540 542 543
f 544 545 546
f 547 548 549
f 547 549 550
f 551 552 553
f 551 553 554
f 555 556 557
f 555 557 558
f 559 560 561
f 559 561 562
f 563 564 565
f 563 565 566
f 567 568 569
f 569 568 570
f 595 596 597
f 598 599 600
f 598 600 601
f 602 603 604
f 602 604 605
f 578 606 607
f 578 607 575
f 608 609 610
f 608 610 611
f 574 612 613
f 574 613 571
f 614 615 616
f 614 616 617
f 618 619 620
f 619 618 621
f 619 621 622
f 623 624 625
f 623 625 626
f 627 628 629
f 628 627 630
f 630 627 631
f 632 633 634
f 632 634 635
f 636 637 638
f 636 638 639
f 640 641 642
f 640 642 643
f 644 645 646
f 644 646 647
f 648 649 650
f 648 650 651
f 652 653 654
f 652 654 655
f 656 657 658
f 656 658 659
f 660 661 662
f 660 662 663
f 664 665 666
f 665 664 667
f 667 664 668
f 694 695 696
f 697 698 699
f 700 701 702
f 700 702 703
f 704 705 706
f 704 706 707
f 707 708 709
f 707 709 710
f 676 711 712
f 676 712 673
f 713 714 715
f 713 715 716
f 672 717 718
f 672 718 669
f 719 720 721
f 719 721 722
f 723 724 725
f 724 723 726
f 727 728 729
f 727 729 730
f 731 732 733
f 732 731 734
f 734 731 735
f 736 737 738
f 736 738 739
f 740 741 742
f 740 742 743
f 744 745 746
f 744 746 747
f 748 749 750
f 748 750 751
f 752 753 754
f 752 754 755
f 756 757 758
f 756 758 759
f 760 761 762
f 760 762 763
f 764 765 766
f 765 764 767
f 767 764 768
f 794 795 796
f 797 798 799
f 800 801 802
f 800 802 803
f 804 805 806
f 804 806 807
f 807 808 809
f 807 809 810
f 776 811 812
f 776 812 773
f 813 814 815
f 813 815 816
f 772 817 818
f 772 818 769
f 819 820 821
f 819 821 822
f 823 824 825
f 824 823 826
f 827 828 829
f 827 829 830
f 831 832 833
f 832 831 834
f 834 831 835
f 836 837 838
f 836 838 839
f 840 841 842
f 840 842 843
